<svg width="50" height="50" viewBox="0 0 50 50" fill="none" xmlns="http://www.w3.org/2000/svg">
<rect width="50" height="50" rx="12" fill="#FCEDBF"/>
<path d="M35.5 21.6719C36.3906 22.1875 37 23.1719 37 24.25C37 25.375 36.3906 26.3594 35.5 26.875V34C35.5 34.4688 35.125 35.5 34 35.5C33.6719 35.5 33.25 35.3594 33.0625 35.1719L29.0312 31.9844C27.0625 30.3906 24.5312 29.5 22 29.5H21.6719C21.1562 31.7031 23.0312 34 23.0312 34.0469C23.4531 34.5156 23.5938 35.2656 23.3594 35.9219C23.125 36.5781 22.5625 37 22 37H19.7031C19.2344 37 18.8125 36.8125 18.5312 36.3906C18.4375 36.25 16.2812 33.1562 16.7969 29.5H16C14.3125 29.5 13 28.1875 13 26.5V22C13 20.3594 14.3125 19 16 19H22C24.5312 19 27.0625 18.1562 29.0781 16.5625L33.0625 13.375C33.2969 13.1406 33.625 13 34 13C35.1719 13 35.5 14.125 35.5 14.5V21.6719ZM16 27.25H22V21.25H16C15.5781 21.25 15.25 21.625 15.25 22V26.5C15.25 26.9219 15.5781 27.25 16 27.25ZM33.25 32.4531V16.0938L30.4375 18.2969C28.6562 19.75 26.5 20.6875 24.25 21.0625V27.4844C26.5 27.8594 28.6562 28.7969 30.4375 30.25L33.25 32.4531Z" fill="#FFCA28"/>
</svg>
