<svg width="51" height="50" viewBox="0 0 51 50" fill="none" xmlns="http://www.w3.org/2000/svg">
<rect x="0.5" width="50" height="50" rx="12" fill="#D1D1D1"/>
<path d="M32.25 34V31H34.5V34C34.5 35.6875 33.1406 37 31.5 37H13.5C11.8125 37 10.5 35.6875 10.5 34V22C10.5 20.3594 11.8125 19 13.5 19H18V34.75H27V31H29.25V34.75H31.5C31.875 34.75 32.25 34.4219 32.25 34ZM15.75 34.75V31.75H12.75V34C12.75 34.4219 13.0781 34.75 13.5 34.75H15.75ZM15.75 29.5V26.5H12.75V29.5H15.75ZM15.75 24.25V21.25H13.5C13.0781 21.25 12.75 21.625 12.75 22V24.25H15.75ZM37.5 13C39.1406 13 40.5 14.3594 40.5 16V26.5C40.5 28.1875 39.1406 29.5 37.5 29.5H22.5C20.8125 29.5 19.5 28.1875 19.5 26.5V16C19.5 14.3594 20.8125 13 22.5 13H37.5ZM38.25 26.5V16C38.25 15.625 37.875 15.25 37.5 15.25H22.5C22.0781 15.25 21.75 15.625 21.75 16V26.5C21.75 26.9219 22.0781 27.25 22.5 27.25L25.9219 22.7031C26.0625 22.5156 26.25 22.375 26.4844 22.375C26.7656 22.375 26.9531 22.5156 27.0938 22.7031L28.1719 24.1562L31.125 19.75C31.2188 19.5156 31.4531 19.375 31.7344 19.375C31.9688 19.375 32.2031 19.5156 32.3438 19.75L37.5 27.25C37.875 27.25 38.25 26.9219 38.25 26.5ZM24.7031 16.75C25.5469 16.75 26.2031 17.4531 26.2031 18.25C26.2031 19.0938 25.5469 19.75 24.7031 19.75C23.9062 19.75 23.2031 19.0938 23.2031 18.25C23.2031 17.4531 23.9062 16.75 24.7031 16.75Z" fill="white"/>
</svg>
