<svg width="12" height="15" viewBox="0 0 12 15" fill="none" xmlns="http://www.w3.org/2000/svg">
<path d="M10.6992 8.43359L3.69922 14.5586C3.53516 14.6953 3.31641 14.75 3.125 14.75C2.93359 14.75 2.74219 14.6953 2.60547 14.5859C2.27734 14.3672 2.14062 13.9297 2.30469 13.5469L4.41016 8.65234H1.375C0.992188 8.65234 0.664062 8.40625 0.554688 8.07812C0.417969 7.72266 0.5 7.33984 0.773438 7.09375L7.77344 0.96875C8.10156 0.722656 8.53906 0.695312 8.86719 0.941406C9.19531 1.16016 9.33203 1.59766 9.16797 1.98047L7.0625 6.90234H10.0977C10.4805 6.90234 10.8086 7.12109 10.918 7.44922C11.0547 7.80469 10.9727 8.1875 10.6992 8.43359Z" fill="#121212"/>
</svg>
