<svg width="20" height="25" viewBox="0 0 20 25" fill="none" xmlns="http://www.w3.org/2000/svg">
<path d="M18.4844 14.1719L6.48438 24.6719C6.20312 24.9062 5.82812 25 5.5 25C5.17188 25 4.84375 24.9062 4.60938 24.7188C4.04688 24.3438 3.8125 23.5938 4.09375 22.9375L7.70312 14.5469H2.5C1.84375 14.5469 1.28125 14.125 1.09375 13.5625C0.859375 12.9531 1 12.2969 1.46875 11.875L13.4688 1.375C14.0312 0.953125 14.7812 0.90625 15.3438 1.32812C15.9062 1.70312 16.1406 2.45312 15.8594 3.10938L12.25 11.5469H17.4531C18.1094 11.5469 18.6719 11.9219 18.8594 12.4844C19.0938 13.0938 18.9531 13.75 18.4844 14.1719Z" fill="white"/>
</svg>
