<svg width="25" height="24" viewBox="0 0 25 24" fill="none" xmlns="http://www.w3.org/2000/svg">
<path d="M23 8.67188C23.8906 9.1875 24.5 10.1719 24.5 11.25C24.5 12.375 23.8906 13.3594 23 13.875V21C23 21.4688 22.625 22.5 21.5 22.5C21.1719 22.5 20.75 22.3594 20.5625 22.1719L16.5312 18.9844C14.5625 17.3906 12.0312 16.5 9.5 16.5H9.17188C8.65625 18.7031 10.5312 21 10.5312 21.0469C10.9531 21.5156 11.0938 22.2656 10.8594 22.9219C10.625 23.5781 10.0625 24 9.5 24H7.20312C6.73438 24 6.3125 23.8125 6.03125 23.3906C5.9375 23.25 3.78125 20.1562 4.29688 16.5H3.5C1.8125 16.5 0.5 15.1875 0.5 13.5V9C0.5 7.35938 1.8125 6 3.5 6H9.5C12.0312 6 14.5625 5.15625 16.5781 3.5625L20.5625 0.375C20.7969 0.140625 21.125 0 21.5 0C22.6719 0 23 1.125 23 1.5V8.67188ZM3.5 14.25H9.5V8.25H3.5C3.07812 8.25 2.75 8.625 2.75 9V13.5C2.75 13.9219 3.07812 14.25 3.5 14.25ZM20.75 19.4531V3.09375L17.9375 5.29688C16.1562 6.75 14 7.6875 11.75 8.0625V14.4844C14 14.8594 16.1562 15.7969 17.9375 17.25L20.75 19.4531Z" fill="white"/>
</svg>
