<svg width="23" height="21" viewBox="0 0 23 21" fill="none" xmlns="http://www.w3.org/2000/svg">
<path d="M19.9219 4.13281L16.2109 7.10156C16.2109 7.21875 16.25 7.29688 16.25 7.375C16.25 8.42969 15.3906 9.25 14.375 9.25C13.3203 9.25 12.5 8.42969 12.5 7.375C12.5 7.29688 12.5 7.21875 12.5 7.10156L8.78906 4.13281C8.59375 4.21094 8.35938 4.25 8.125 4.25C7.92969 4.25 7.77344 4.25 7.61719 4.21094L3.67188 8.15625C3.71094 8.3125 3.75 8.46875 3.75 8.625C3.75 9.67969 2.89062 10.5 1.875 10.5C0.820312 10.5 0 9.67969 0 8.625C0 7.60938 0.820312 6.75 1.875 6.75C2.03125 6.75 2.1875 6.78906 2.34375 6.82812L6.28906 2.88281C6.25 2.72656 6.25 2.57031 6.25 2.375C6.25 1.35938 7.07031 0.5 8.125 0.5C9.14062 0.5 10 1.35938 10 2.375C10 2.49219 9.96094 2.57031 9.96094 2.6875L13.6719 5.65625C13.9062 5.57812 14.1016 5.5 14.375 5.5C14.6094 5.5 14.8438 5.57812 15.0391 5.65625L18.75 2.6875C18.75 2.57031 18.75 2.49219 18.75 2.375C18.75 1.35938 19.5703 0.5 20.625 0.5C21.6406 0.5 22.5 1.35938 22.5 2.375C22.5 3.42969 21.6406 4.25 20.625 4.25C20.3516 4.25 20.1562 4.21094 19.9219 4.13281ZM15 13C15.6641 13 16.25 13.5859 16.25 14.25V19.25C16.25 19.9531 15.6641 20.5 15 20.5H13.75C13.0469 20.5 12.5 19.9531 12.5 19.25V14.25C12.5 13.5859 13.0469 13 13.75 13H15ZM21.25 8C21.9141 8 22.5 8.58594 22.5 9.25V19.25C22.5 19.9531 21.9141 20.5 21.25 20.5H20C19.2969 20.5 18.75 19.9531 18.75 19.25V9.25C18.75 8.58594 19.2969 8 20 8H21.25ZM8.75 8C9.41406 8 10 8.58594 10 9.25V19.25C10 19.9531 9.41406 20.5 8.75 20.5H7.5C6.79688 20.5 6.25 19.9531 6.25 19.25V9.25C6.25 8.58594 6.79688 8 7.5 8H8.75ZM2.5 14.25C3.16406 14.25 3.75 14.8359 3.75 15.5V19.25C3.75 19.9531 3.16406 20.5 2.5 20.5H1.25C0.546875 20.5 0 19.9531 0 19.25V15.5C0 14.8359 0.546875 14.25 1.25 14.25H2.5Z" fill="#269137"/>
</svg>
