<svg width="25" height="22" viewBox="0 0 25 22" fill="none" xmlns="http://www.w3.org/2000/svg">
<path d="M7.625 11C6.96875 11 6.5 10.5312 6.5 9.875C6.5 9.26562 6.96875 8.75 7.625 8.75H14.375C14.9844 8.75 15.5 9.26562 15.5 9.875C15.5 10.5312 14.9844 11 14.375 11H7.625ZM7.625 6.5C6.96875 6.5 6.5 6.03125 6.5 5.375C6.5 4.76562 6.96875 4.25 7.625 4.25H17.375C17.9844 4.25 18.5 4.76562 18.5 5.375C18.5 6.03125 17.9844 6.5 17.375 6.5H7.625ZM7.625 15.5C6.96875 15.5 6.5 15.0312 6.5 14.375C6.5 13.7656 6.96875 13.25 7.625 13.25H20.375C20.9844 13.25 21.5 13.7656 21.5 14.375C21.5 15.0312 20.9844 15.5 20.375 15.5H7.625ZM23.375 19.25C23.9844 19.25 24.5 19.7656 24.5 20.375C24.5 21.0312 23.9844 21.5 23.375 21.5H2C1.15625 21.5 0.5 20.8438 0.5 20V1.625C0.5 1.01562 0.96875 0.5 1.625 0.5C2.23438 0.5 2.75 1.01562 2.75 1.625V19.25H23.375Z" fill="white"/>
</svg>
