<svg width="25" height="22" viewBox="0 0 25 22" fill="none" xmlns="http://www.w3.org/2000/svg">
<path d="M7.25 13.2969C6.82812 13.7656 6.125 13.7656 5.70312 13.2969C5.23438 12.875 5.23438 12.1719 5.70312 11.75L9.45312 8C9.875 7.53125 10.5781 7.53125 11 8L14.75 11.7031L21.0781 5.375C21.5 4.90625 22.2031 4.90625 22.625 5.375C23.0938 5.79688 23.0938 6.5 22.625 6.92188L15.5 14.0469C15.3125 14.2812 15.0312 14.375 14.75 14.375C14.4219 14.375 14.1406 14.2812 13.9531 14.0469L10.25 10.3438L7.25 13.2969ZM23.375 19.25C23.9844 19.25 24.5 19.7656 24.5 20.375C24.5 21.0312 23.9844 21.5 23.375 21.5H2C1.15625 21.5 0.5 20.8438 0.5 20V1.625C0.5 1.01562 0.96875 0.5 1.625 0.5C2.23438 0.5 2.75 1.01562 2.75 1.625V19.25H23.375Z" fill="white"/>
</svg>
