<svg width="19" height="20" viewBox="0 0 19 20" fill="none" xmlns="http://www.w3.org/2000/svg">
<path d="M9.5 0.625C14.6562 0.625 18.875 4.84375 18.875 10C18.875 15.1953 14.6562 19.375 9.5 19.375C4.30469 19.375 0.125 15.1953 0.125 10C0.125 4.84375 4.30469 0.625 9.5 0.625ZM13.9922 8.28125C14.4219 7.85156 14.4219 7.1875 13.9922 6.75781C13.5625 6.32812 12.8984 6.32812 12.4688 6.75781L8.25 10.9766L6.49219 9.25781C6.0625 8.82812 5.39844 8.82812 4.96875 9.25781C4.53906 9.6875 4.53906 10.3516 4.96875 10.7812L7.46875 13.2812C7.66406 13.5156 7.9375 13.5938 8.25 13.5938C8.52344 13.5938 8.79688 13.5156 8.99219 13.2812L13.9922 8.28125Z" fill="#81D4FA"/>
</svg>
