<svg width="22" height="25" viewBox="0 0 22 25" fill="none" xmlns="http://www.w3.org/2000/svg">
<path d="M21.4027 4.25C21.4027 5.9375 20.2777 7.34375 18.7777 7.8125V9.5C18.7777 11.7969 16.9027 13.625 14.6527 13.625H7.15271C6.07458 13.625 5.27771 14.4688 5.27771 15.5V17.2344C6.77771 17.7031 7.90271 19.1094 7.90271 20.75C7.90271 22.8594 6.21521 24.5 4.15271 24.5C2.04333 24.5 0.40271 22.8594 0.40271 20.75C0.40271 19.1094 1.48083 17.7031 3.02771 17.2344V7.8125C1.48083 7.34375 0.40271 5.9375 0.40271 4.25C0.40271 2.1875 2.04333 0.5 4.15271 0.5C6.21521 0.5 7.90271 2.1875 7.90271 4.25C7.90271 5.9375 6.77771 7.34375 5.27771 7.8125V11.8906C5.84021 11.5625 6.44958 11.375 7.15271 11.375H14.6527C15.684 11.375 16.5277 10.5781 16.5277 9.5V7.8125C14.9808 7.34375 13.9027 5.9375 13.9027 4.25C13.9027 2.1875 15.5433 0.5 17.6527 0.5C19.7152 0.5 21.4027 2.1875 21.4027 4.25ZM4.15271 2.75C3.30896 2.75 2.65271 3.45312 2.65271 4.25C2.65271 5.09375 3.30896 5.75 4.15271 5.75C4.94958 5.75 5.65271 5.09375 5.65271 4.25C5.65271 3.45312 4.94958 2.75 4.15271 2.75ZM4.15271 22.25C4.94958 22.25 5.65271 21.5938 5.65271 20.75C5.65271 19.9531 4.94958 19.25 4.15271 19.25C3.30896 19.25 2.65271 19.9531 2.65271 20.75C2.65271 21.5938 3.30896 22.25 4.15271 22.25ZM17.6527 5.75C18.4496 5.75 19.1527 5.09375 19.1527 4.25C19.1527 3.45312 18.4496 2.75 17.6527 2.75C16.809 2.75 16.1527 3.45312 16.1527 4.25C16.1527 5.09375 16.809 5.75 17.6527 5.75Z" fill="#9E9E9E"/>
</svg>
