<svg width="30" height="24" viewBox="0 0 30 24" fill="none" xmlns="http://www.w3.org/2000/svg">
<path d="M2.25 6.375C2.1875 7.0625 1.8125 7.4375 1.125 7.5C0.4375 7.4375 0.0625 7.0625 0 6.375V1.5C0 1.0625 0.140625 0.703125 0.421875 0.421875C0.703125 0.140625 1.0625 0 1.5 0H6.375C7.0625 0.0625 7.4375 0.4375 7.5 1.125C7.4375 1.8125 7.0625 2.1875 6.375 2.25H2.25V6.375ZM27.75 2.25H23.625C22.9375 2.1875 22.5625 1.8125 22.5 1.125C22.5625 0.4375 22.9375 0.0625 23.625 0H28.5C28.9375 0 29.2969 0.140625 29.5781 0.421875C29.8594 0.703125 30 1.0625 30 1.5V6.375C29.9375 7.0625 29.5625 7.4375 28.875 7.5C28.1875 7.4375 27.8125 7.0625 27.75 6.375V2.25ZM7.5 22.875C7.4375 23.5625 7.0625 23.9375 6.375 24H1.5C1.0625 24 0.703125 23.8594 0.421875 23.5781C0.140625 23.2969 0 22.9375 0 22.5V17.625C0.0625 16.9375 0.4375 16.5625 1.125 16.5C1.8125 16.5625 2.1875 16.9375 2.25 17.625V21.75H6.375C7.0625 21.8125 7.4375 22.1875 7.5 22.875ZM27.75 17.625C27.8125 16.9375 28.1875 16.5625 28.875 16.5C29.5625 16.5625 29.9375 16.9375 30 17.625V22.5C30 22.9375 29.8594 23.2969 29.5781 23.5781C29.2969 23.8594 28.9375 24 28.5 24H23.625C22.9375 23.9375 22.5625 23.5625 22.5 22.875C22.5625 22.1875 22.9375 21.8125 23.625 21.75H27.75V17.625ZM12.5625 13.5938C12.875 13.5312 13.1875 13.5 13.5 13.5H16.5C16.8125 13.5 17.125 13.5312 17.4375 13.5938C17.4375 13.5938 17.4531 13.5938 17.4844 13.5938C17.5156 13.625 17.5469 13.6406 17.5781 13.6406C18.7031 13.9219 19.5938 14.5469 20.25 15.5156C20.25 15.5469 20.2812 15.5938 20.3438 15.6562C20.375 15.6875 20.3906 15.7188 20.3906 15.75C20.7969 16.4062 21 17.1562 21 18C21 18.4375 20.8594 18.7969 20.5781 19.0781C20.2969 19.3594 19.9375 19.5 19.5 19.5H10.5C10.0625 19.5 9.70312 19.3594 9.42188 19.0781C9.14062 18.7969 9 18.4375 9 18C9 17.1562 9.20312 16.4062 9.60938 15.75C10.2344 14.6562 11.1719 13.9531 12.4219 13.6406C12.4531 13.6406 12.4844 13.625 12.5156 13.5938C12.5469 13.5938 12.5625 13.5938 12.5625 13.5938ZM18.6094 17.25C18.2344 16.3125 17.5312 15.8125 16.5 15.75H13.5C12.4688 15.8125 11.7656 16.3125 11.3906 17.25H18.6094ZM11.625 8.625C11.6562 7.65625 11.9844 6.85937 12.6094 6.23438C13.2344 5.60938 14.0312 5.28125 15 5.25C15.9688 5.28125 16.7656 5.60938 17.3906 6.23438C18.0156 6.85937 18.3438 7.65625 18.375 8.625C18.3438 9.75 17.9219 10.6406 17.1094 11.2969C16.9219 11.4219 16.7188 11.5469 16.5 11.6719C16.0312 11.8906 15.5312 12 15 12C14.4688 12 13.9688 11.8906 13.5 11.6719C13.2812 11.5469 13.0781 11.4219 12.8906 11.2969C12.0781 10.6406 11.6562 9.75 11.625 8.625ZM15 9.75C15.6875 9.6875 16.0625 9.3125 16.125 8.625C16.0625 7.9375 15.6875 7.5625 15 7.5C14.3125 7.5625 13.9375 7.9375 13.875 8.625C13.9375 9.3125 14.3125 9.6875 15 9.75ZM10.5 8.25C10.4688 8.875 10.25 9.40625 9.84375 9.84375C9.40625 10.25 8.875 10.4688 8.25 10.5C7.59375 10.4688 7.0625 10.25 6.65625 9.84375C6.21875 9.40625 6 8.875 6 8.25C6 7.625 6.21875 7.09375 6.65625 6.65625C7.0625 6.25 7.59375 6.03125 8.25 6C8.875 6.03125 9.40625 6.25 9.84375 6.65625C10.25 7.09375 10.4688 7.625 10.5 8.25ZM4.5 14.4844C4.53125 13.7969 4.78125 13.2188 5.25 12.75C5.71875 12.2812 6.29688 12.0312 6.98438 12H10.2656C10.7031 12 11.125 12.1094 11.5312 12.3281C9.84375 12.9531 8.64062 14.0938 7.92188 15.75H5.76562C4.98438 15.6875 4.5625 15.2656 4.5 14.4844ZM18.5156 12.3281C18.8906 12.1094 19.2969 12 19.7344 12H23.0156C23.7031 12.0312 24.2812 12.2812 24.75 12.75C25.2188 13.2188 25.4688 13.7969 25.5 14.4844C25.4375 15.2656 25.0156 15.6875 24.2344 15.75H22.0781C21.3594 14.0938 20.1719 12.9531 18.5156 12.3281ZM24 8.25C23.9688 8.875 23.75 9.40625 23.3438 9.84375C22.9062 10.25 22.375 10.4688 21.75 10.5C21.125 10.4688 20.5938 10.25 20.1562 9.84375C19.75 9.40625 19.5312 8.875 19.5 8.25C19.5312 7.625 19.75 7.09375 20.1562 6.65625C20.5938 6.25 21.125 6.03125 21.75 6C22.375 6.03125 22.9062 6.25 23.3438 6.65625C23.75 7.09375 23.9688 7.625 24 8.25Z" fill="#121212"/>
</svg>
