<svg width="25" height="21" viewBox="0 0 25 21" fill="none" xmlns="http://www.w3.org/2000/svg">
<path d="M12.8054 0C19.4148 0 24.8054 4.40625 24.8054 9.75C24.8054 15.1406 19.4148 19.5 12.8054 19.5C11.2585 19.5 9.80542 19.2656 8.44604 18.8438C7.08667 19.8281 4.78979 21 1.93042 21C1.46167 21 1.03979 20.7656 0.852295 20.3438C0.71167 19.9219 0.758545 19.4531 1.08667 19.125C1.13354 19.125 2.58667 17.5312 3.24292 15.7031C1.69604 14.0625 0.80542 12 0.80542 9.75C0.80542 4.40625 6.14917 0 12.8054 0ZM12.8054 17.25C18.1492 17.25 22.5554 13.9219 22.5554 9.75C22.5554 5.625 18.1492 2.25 12.8054 2.25C7.41479 2.25 3.05542 5.625 3.05542 9.75C3.05542 11.7656 4.03979 13.2656 4.88354 14.1562L5.86792 15.1875L5.35229 16.5C5.11792 17.1562 4.78979 17.8125 4.41479 18.375C5.53979 18 6.47729 17.4844 7.13354 17.0156L8.02417 16.3594L9.10229 16.6875C10.2742 17.0625 11.5398 17.25 12.8054 17.25Z" fill="#0D3F46"/>
</svg>
