<svg width="25" height="22" viewBox="0 0 25 22" fill="none" xmlns="http://www.w3.org/2000/svg">
<path d="M14.9844 6.92188C15.4062 6.45312 16.1094 6.40625 16.5781 6.78125C17.0469 7.20312 17.0938 7.90625 16.7188 8.375L12.2188 13.625C11.9844 13.8594 11.7031 14 11.375 14C11.0469 14 10.7656 13.9062 10.5781 13.6719L8.32812 11.4219C7.85938 11 7.85938 10.2969 8.32812 9.875C8.75 9.40625 9.45312 9.40625 9.875 9.875L11.2812 11.2344L14.9844 6.92188ZM12.5 0.5C19.1094 0.5 24.5 4.90625 24.5 10.25C24.5 15.6406 19.1094 20 12.5 20C10.9531 20 9.5 19.7656 8.14062 19.3438C6.78125 20.3281 4.48438 21.5 1.625 21.5C1.15625 21.5 0.734375 21.2656 0.546875 20.8438C0.40625 20.4219 0.453125 19.9531 0.78125 19.625C0.828125 19.625 2.28125 18.0312 2.9375 16.2031C1.39062 14.5625 0.5 12.5 0.5 10.25C0.5 4.90625 5.84375 0.5 12.5 0.5ZM12.5 17.75C17.8438 17.75 22.25 14.4219 22.25 10.25C22.25 6.125 17.8438 2.75 12.5 2.75C7.10938 2.75 2.75 6.125 2.75 10.25C2.75 12.2656 3.73438 13.7656 4.57812 14.6562L5.5625 15.6875L5.04688 17C4.8125 17.6562 4.48438 18.3125 4.10938 18.875C5.23438 18.5 6.17188 17.9844 6.82812 17.5156L7.71875 16.8594L8.79688 17.1875C9.96875 17.5625 11.2344 17.75 12.5 17.75Z" fill="white"/>
</svg>
