<svg width="31" height="25" viewBox="0 0 31 25" fill="none" xmlns="http://www.w3.org/2000/svg">
<path d="M7.99994 6.75C8.79681 6.75 9.49994 7.45312 9.49994 8.25C9.49994 9.09375 8.79681 9.75 7.99994 9.75C7.15619 9.75 6.49994 9.09375 6.49994 8.25C6.49994 7.45312 7.15619 6.75 7.99994 6.75ZM14.8906 9.32812C15.3593 9.60938 15.5937 10.2188 15.4062 10.7344C15.0781 11.7656 14.5624 12.7031 13.8593 13.5C13.4843 13.875 12.8281 13.9688 12.3593 13.7344L11.5624 13.2656C11.2343 13.5 10.8593 13.6875 10.4843 13.875V14.7656C10.4843 15.3281 10.1093 15.8438 9.54681 15.9375C9.03119 16.0781 8.51556 16.125 7.99994 16.125C7.43744 16.125 6.92181 16.0781 6.40619 15.9375C5.84369 15.8438 5.46869 15.3281 5.46869 14.7656V13.875C5.09369 13.6875 4.71869 13.5 4.39056 13.2656L3.59369 13.7344C3.12494 13.9688 2.46869 13.875 2.09369 13.4531C1.39056 12.7031 0.874939 11.7656 0.546814 10.7344C0.359314 10.2188 0.593689 9.60938 1.06244 9.32812L1.85931 8.90625C1.85931 8.67188 1.81244 8.48438 1.81244 8.29688C1.81244 8.0625 1.85931 7.875 1.85931 7.64062L1.06244 7.21875C0.593689 6.9375 0.359314 6.32812 0.546814 5.8125C0.874939 4.78125 1.39056 3.84375 2.09369 3.04688C2.46869 2.67188 3.12494 2.57812 3.59369 2.8125L4.39056 3.28125C4.71869 3.04688 5.09369 2.85938 5.46869 2.71875V1.78125C5.46869 1.21875 5.84369 0.703125 6.40619 0.609375C7.43744 0.375 8.51556 0.375 9.54681 0.609375C10.1093 0.703125 10.4843 1.21875 10.4843 1.78125V2.71875C10.8593 2.85938 11.2343 3.04688 11.5624 3.28125L12.3593 2.8125C12.8281 2.57812 13.4843 2.67188 13.8593 3.04688C14.5624 3.84375 15.0781 4.78125 15.4062 5.8125C15.5937 6.32812 15.3593 6.9375 14.8906 7.21875L14.0937 7.64062C14.0937 7.875 14.1406 8.0625 14.1406 8.29688C14.1406 8.48438 14.0937 8.67188 14.0937 8.90625L14.8906 9.32812ZM12.1249 8.25C12.1249 7.73438 11.9843 7.26562 11.8437 6.79688L13.4374 5.85938C13.2499 5.48438 13.0624 5.10938 12.7812 4.73438L11.1874 5.67188C10.5312 4.92188 9.64056 4.35938 8.60931 4.21875V2.34375C8.18744 2.29688 7.76556 2.29688 7.34369 2.34375V4.21875C6.31244 4.35938 5.42181 4.92188 4.81244 5.67188L3.17181 4.73438C2.89056 5.10938 2.70306 5.48438 2.51556 5.85938L4.15619 6.79688C3.96869 7.26562 3.87494 7.73438 3.87494 8.25C3.87494 8.8125 3.96869 9.28125 4.15619 9.75L2.51556 10.6875C2.70306 11.0625 2.89056 11.4375 3.17181 11.8125L4.81244 10.875C5.42181 11.625 6.31244 12.1875 7.34369 12.3281V14.2031C7.76556 14.25 8.18744 14.25 8.60931 14.2031V12.3281C9.64056 12.1875 10.5312 11.625 11.1406 10.875L12.7812 11.8125C13.0624 11.4375 13.2499 11.0625 13.4374 10.6875L11.8437 9.75C11.9843 9.28125 12.1249 8.8125 12.1249 8.25ZM22.2499 15.0469C23.0468 15.0469 23.7499 15.7031 23.7499 16.5469C23.7499 17.3438 23.0468 18.0469 22.2499 18.0469C21.4062 18.0469 20.7499 17.3438 20.7499 16.5469C20.7499 15.7031 21.4062 15.0469 22.2499 15.0469ZM29.8906 14.9531C30.1249 15.9844 30.1249 17.0625 29.8906 18.0938C29.7968 18.6562 29.2812 19.0312 28.7187 19.0312H27.7812C27.6406 19.4062 27.4531 19.7812 27.2187 20.1094L27.6874 20.9062C27.9218 21.375 27.8281 22.0312 27.4531 22.4062C26.6562 23.1094 25.7187 23.625 24.6874 23.9531C24.1718 24.1406 23.5624 23.9062 23.2812 23.4375L22.8593 22.6406C22.6249 22.6406 22.4374 22.6875 22.2031 22.6875C22.0156 22.6875 21.8281 22.6406 21.5937 22.6406L21.1718 23.4375C20.8906 23.9062 20.2812 24.1406 19.7656 23.9531C18.7343 23.625 17.7968 23.1094 16.9999 22.4062C16.6249 22.0312 16.5312 21.375 16.7656 20.9062L17.2343 20.1094C16.9999 19.7812 16.8124 19.4062 16.6249 19.0312H15.7343C15.1718 19.0312 14.6562 18.6562 14.5624 18.0938C14.4218 17.5781 14.3749 17.0625 14.3749 16.5469C14.3749 15.9844 14.4218 15.4688 14.5624 14.9531C14.6562 14.3906 15.1718 14.0156 15.7343 14.0156H16.6249C16.8124 13.6406 16.9999 13.2656 17.2343 12.9375L16.7656 12.1406C16.5312 11.6719 16.6249 11.0156 17.0468 10.6406C17.7968 9.9375 18.7343 9.42188 19.7656 9.09375C20.2812 8.90625 20.8906 9.14062 21.1718 9.60938L21.5937 10.4062C21.8281 10.4062 22.0156 10.3594 22.2031 10.3594C22.4374 10.3594 22.6249 10.4062 22.8593 10.4062L23.2812 9.60938C23.5624 9.14062 24.1718 8.90625 24.6874 9.09375C25.7187 9.42188 26.6562 9.9375 27.4531 10.6406C27.8281 11.0156 27.9218 11.6719 27.6874 12.1406L27.2187 12.9375C27.4531 13.2656 27.6406 13.6406 27.7812 14.0156H28.7187C29.2812 14.0156 29.7968 14.3906 29.8906 14.9531ZM28.1562 17.1562C28.2031 16.7344 28.2031 16.3125 28.1562 15.8906H26.2812C26.1406 14.8594 25.5781 13.9688 24.8281 13.3594L25.7656 11.7188C25.3906 11.4375 25.0156 11.25 24.6406 11.0625L23.7031 12.7031C23.2343 12.5156 22.7656 12.4219 22.2499 12.4219C21.6874 12.4219 21.2187 12.5156 20.7499 12.7031L19.8124 11.0625C19.4374 11.25 19.0624 11.4375 18.6874 11.7188L19.6249 13.3594C18.8749 13.9688 18.3124 14.8594 18.1718 15.8906H16.2968C16.2499 16.3125 16.2499 16.7344 16.2968 17.1562H18.1718C18.3124 18.1875 18.8749 19.0781 19.6249 19.6875L18.6874 21.3281C19.0624 21.6094 19.4374 21.7969 19.8124 21.9844L20.7499 20.3438C21.2187 20.5312 21.6874 20.6719 22.2499 20.6719C22.7656 20.6719 23.2343 20.5312 23.7031 20.3438L24.6406 21.9844C25.0156 21.7969 25.3906 21.6094 25.7656 21.3281L24.8281 19.6875C25.5781 19.0781 26.1406 18.1875 26.2812 17.1562H28.1562Z" fill="#121212"/>
</svg>
