<svg width="17" height="24" viewBox="0 0 17 24" fill="none" xmlns="http://www.w3.org/2000/svg">
<path d="M13.75 0C15.3906 0 16.75 1.35938 16.75 3V21C16.75 22.6875 15.3906 24 13.75 24H3.25C1.5625 24 0.25 22.6875 0.25 21V3C0.25 1.35938 1.5625 0 3.25 0H13.75ZM14.5 21V3C14.5 2.625 14.125 2.25 13.75 2.25H3.25C2.82812 2.25 2.5 2.625 2.5 3V21C2.5 21.4219 2.82812 21.75 3.25 21.75H13.75C14.125 21.75 14.5 21.4219 14.5 21ZM10 18.75C10.375 18.75 10.75 19.125 10.75 19.5C10.75 19.9219 10.375 20.25 10 20.25H7C6.57812 20.25 6.25 19.9219 6.25 19.5C6.25 19.125 6.57812 18.75 7 18.75H10Z" fill="#121212"/>
</svg>
