<svg width="14" height="14" viewBox="0 0 14 14" fill="none" xmlns="http://www.w3.org/2000/svg">
<path d="M13.5625 6.75C13.5625 10.3867 10.6094 13.3125 7 13.3125C3.36328 13.3125 0.4375 10.3867 0.4375 6.75C0.4375 3.14062 3.36328 0.1875 7 0.1875C10.6094 0.1875 13.5625 3.14062 13.5625 6.75ZM9.46094 8.66406C8.83203 9.40234 7.95703 9.8125 7 9.8125C6.04297 9.8125 5.14062 9.40234 4.51172 8.66406C4.15625 8.22656 3.47266 8.77344 3.85547 9.23828C4.62109 10.168 5.76953 10.6875 7 10.6875C8.20312 10.6875 9.35156 10.168 10.1172 9.23828C10.5 8.77344 9.81641 8.22656 9.46094 8.66406ZM3.9375 5.4375C3.9375 5.92969 4.32031 6.3125 4.8125 6.3125C5.27734 6.3125 5.6875 5.92969 5.6875 5.4375C5.6875 4.97266 5.27734 4.5625 4.8125 4.5625C4.32031 4.5625 3.9375 4.97266 3.9375 5.4375ZM8.3125 5.4375C8.3125 5.92969 8.69531 6.3125 9.1875 6.3125C9.65234 6.3125 10.0625 5.92969 10.0625 5.4375C10.0625 4.97266 9.65234 4.5625 9.1875 4.5625C8.69531 4.5625 8.3125 4.97266 8.3125 5.4375Z" fill="#121212"/>
</svg>
