<svg width="24" height="24" viewBox="0 0 24 24" fill="none" xmlns="http://www.w3.org/2000/svg">
<path d="M23.1093 7.6875C23.6718 8.10938 23.9999 8.76562 23.9999 9.42188V21C23.9999 22.6875 22.6406 24 20.9999 24H2.99994C1.31244 24 -6.10352e-05 22.6875 -6.10352e-05 21V9.42188C-6.10352e-05 8.76562 0.281189 8.10938 0.843689 7.6875C2.01556 6.75 2.95306 6 8.53119 1.96875C9.32806 1.40625 10.8749 0 11.9531 0C11.9531 0 11.9531 0.046875 11.9999 0.046875V0C13.0781 0 14.6249 1.40625 15.4218 1.96875C20.9999 6 21.9374 6.75 23.1093 7.6875ZM21.7499 21V12.9844L15.3281 18.3281C14.3906 19.0781 13.2187 19.5469 11.9999 19.5469C10.7343 19.5469 9.56244 19.0781 8.62494 18.3281L2.24994 12.9844V21C2.24994 21.4219 2.57806 21.75 2.99994 21.75H20.9999C21.3749 21.75 21.7499 21.4219 21.7499 21ZM21.7499 10.0781V9.42188C20.6249 8.57812 19.7343 7.875 14.1093 3.79688C13.9218 3.65625 13.7812 3.5625 13.5937 3.42188C13.2187 3.09375 12.4218 2.48438 11.9999 2.29688C11.5312 2.48438 10.7343 3.09375 10.3593 3.42188C10.1718 3.5625 10.0312 3.65625 9.84369 3.79688C4.21869 7.875 3.32806 8.57812 2.24994 9.42188V9.75V10.0781L10.0312 16.5938C11.1093 17.4844 12.8437 17.4844 13.9218 16.5938L21.7499 10.0781Z" fill="#121212"/>
</svg>
