<svg width="25" height="19" viewBox="0 0 25 19" fill="none" xmlns="http://www.w3.org/2000/svg">
<path d="M21.9027 0.5C23.5433 0.5 24.9027 1.85938 24.9027 3.5V15.5C24.9027 17.1875 23.5433 18.5 21.9027 18.5H3.90271C2.21521 18.5 0.90271 17.1875 0.90271 15.5V3.5C0.90271 1.85938 2.21521 0.5 3.90271 0.5H21.9027ZM3.90271 2.75C3.48083 2.75 3.15271 3.125 3.15271 3.5V4.57812L10.934 11.0938C12.0121 11.9844 13.7465 11.9844 14.8246 11.0938L22.6527 4.57812V3.5C22.6527 3.125 22.2777 2.75 21.9027 2.75H3.90271ZM21.9027 16.25C22.2777 16.25 22.6527 15.9219 22.6527 15.5V7.48438L16.2308 12.8281C15.2933 13.5781 14.1215 14.0469 12.9027 14.0469C11.6371 14.0469 10.4652 13.5781 9.52771 12.8281L3.15271 7.48438V15.5C3.15271 15.9219 3.48083 16.25 3.90271 16.25H21.9027Z" fill="#3EB1FF"/>
</svg>
