<svg version="1.2" xmlns="http://www.w3.org/2000/svg" viewBox="0 0 81 58" width="81" height="58"><style>.a{fill:#3bb24a}.b{fill:#fff}.c{fill:#c7e1e5;stroke:#f5f5f5;stroke-width:1.6}</style><path class="a" d="m14.6 51.8l-13.8 3 3.1-13.7c-2.1-3.8-3.1-8-3.1-12.3 0-14.3 11.7-26 26-26 14.4 0 26 11.7 26 26 0 14.4-11.6 26-26 26-4.3 0.1-8.5-1-12.2-3z"/><path class="b" d="m27 12.9c-2 0-3.9 0.8-5.4 2.2-1.4 1.5-2.2 3.4-2.2 5.5 0 0.5 0.2 1 0.5 1.3 0.4 0.4 0.9 0.6 1.4 0.6 0.5 0 1-0.2 1.3-0.6 0.4-0.3 0.6-0.8 0.6-1.3 0-1.1 0.4-2 1.1-2.8 0.8-0.7 1.7-1.1 2.7-1.1 1.1 0 2 0.4 2.8 1.1 0.7 0.8 1.1 1.7 1.1 2.8 0 1.6-1 2.6-2.6 4.1-1.5 1.4-3.2 3-3.2 5.5 0 0.5 0.2 1 0.6 1.3 0.3 0.4 0.8 0.6 1.3 0.6 0.6 0 1-0.2 1.4-0.6 0.4-0.3 0.6-0.8 0.6-1.3 0-0.8 0.7-1.5 1.9-2.6 1.6-1.5 3.8-3.6 3.8-7 0-2.1-0.8-4-2.2-5.5-1.5-1.4-3.4-2.2-5.5-2.2z"/><path class="b" d="m27.1 35.9c-0.8 0-1.6 0.3-2.2 0.7-0.6 0.4-1.1 1-1.4 1.7-0.3 0.7-0.4 1.5-0.2 2.2 0.1 0.8 0.5 1.5 1 2 0.6 0.5 1.3 0.9 2 1.1 0.7 0.1 1.5 0 2.2-0.3 0.7-0.2 1.3-0.7 1.7-1.4 0.5-0.6 0.7-1.3 0.7-2.1 0-1-0.4-2-1.1-2.7-0.8-0.7-1.7-1.2-2.8-1.2z"/><path class="c" d="m61.2 19.8c-9.9 0-18 8.1-18 18 0 9.9 8.1 18 18 18 3 0 5.9-0.8 8.5-2.2l0.2-0.1 0.3 0.1 8.7 1.9-1.9-8.7-0.1-0.3 0.2-0.3c1.4-2.6 2.1-5.5 2.1-8.4 0-9.9-8.1-18-18-18z"/><path  d="m60.1 28.1c0.8-0.7 2.1-0.5 2.8 0.4l5.4 7.2c0.6 0.9 0.5 2.1-0.4 2.8l-3.6 2.7-1.4 4.7c-0.1 0.3-0.5 0.3-0.6 0.1l-1.6-2.1-2.4 1.8c-0.9 0.7-2.1 0.5-2.8-0.4l-5.4-7.2c-0.7-0.9-0.5-2.1 0.4-2.8zm7.4 8.2l-5.4-7.2c-0.3-0.4-1-0.5-1.4-0.2l-9.6 7.2c-0.5 0.3-0.5 1-0.2 1.4l5.4 7.2c0.3 0.4 1 0.6 1.4 0.2l2.8-2.1c0.2-0.1 0.5-0.1 0.7 0.1l1.1 1.5 1-3.5q0.1-0.3 0.4-0.5l3.6-2.7c0.4-0.3 0.5-1 0.2-1.4zm-11.9 2.7c0.5-0.2 1.5-0.6 2 0.4 0.2 0.5 0 1.2-0.6 1.6q-0.1 0.1-0.3 0.2c-0.2 0.1-0.5 0.2-0.7 0.3-0.3 0.1-0.6 0-0.7-0.3-0.1-0.3 0-0.6 0.3-0.6q0.3-0.1 0.6-0.2c0.3-0.2 0.5-0.5 0.5-0.6-0.1-0.1-0.5 0-0.9 0.2-0.3 0.1-1.3 0.5-1.8-0.4-0.3-0.7 0-1.4 0.9-1.9 0.1-0.1 0.3-0.2 0.5-0.3 0.3 0 0.6 0.1 0.7 0.4 0 0.2-0.1 0.5-0.4 0.6-0.1 0.1-0.3 0.1-0.4 0.2-0.3 0.1-0.5 0.4-0.4 0.5 0.1 0.2 0.4 0 0.7-0.1zm6.8-5.1c0.5-0.2 1.5-0.6 2 0.3 0.2 0.6 0 1.2-0.6 1.7q-0.1 0.1-0.3 0.2c-0.2 0.1-0.5 0.2-0.7 0.3-0.3 0.1-0.6 0-0.7-0.3-0.1-0.3 0-0.6 0.3-0.6q0.3-0.1 0.6-0.3c0.3-0.1 0.5-0.4 0.5-0.5-0.1-0.1-0.5 0-0.9 0.2-0.3 0.1-1.3 0.5-1.8-0.4-0.4-0.7 0-1.4 0.8-1.9 0.2-0.1 0.4-0.2 0.6-0.3 0.3 0 0.6 0.1 0.7 0.4 0 0.2-0.1 0.5-0.4 0.6-0.1 0-0.3 0.1-0.4 0.2-0.3 0.1-0.5 0.4-0.4 0.5 0.1 0.2 0.4 0 0.7-0.1zm-3.1 0.4c0.2 0 0.5 0 0.6 0.2l1.8 2.4c0.2 0.2 0.1 0.5-0.1 0.7-0.2 0.2-0.5 0.1-0.7-0.1l-0.9-1.2v1c0 0.3-0.4 0.6-0.7 0.5l-0.9-0.3 0.9 1.2c0.2 0.2 0.1 0.5-0.1 0.7-0.2 0.2-0.5 0.1-0.7-0.1l-1.8-2.4c-0.1-0.2-0.2-0.4 0-0.6 0.1-0.2 0.3-0.2 0.5-0.2l1.8 0.5v-1.8c0-0.2 0.1-0.4 0.3-0.5z"/></svg>