<svg width="28" height="22" viewBox="0 0 28 22" fill="none" xmlns="http://www.w3.org/2000/svg">
<path d="M8.75 7.25C9.54688 7.25 10.25 7.95312 10.25 8.75C10.25 9.59375 9.54688 10.25 8.75 10.25C7.90625 10.25 7.25 9.59375 7.25 8.75C7.25 7.95312 7.90625 7.25 8.75 7.25ZM6.5 12.5C7.29688 12.5 8 13.2031 8 14C8 14.8438 7.29688 15.5 6.5 15.5C5.65625 15.5 5 14.8438 5 14C5 13.2031 5.65625 12.5 6.5 12.5ZM20 14C20 13.2031 20.6562 12.5 21.5 12.5C22.2969 12.5 23 13.2031 23 14C23 14.8438 22.2969 15.5 21.5 15.5C20.6562 15.5 20 14.8438 20 14ZM14 0.5C21.4531 0.5 27.5 6.54688 27.5 14C27.5 16.4844 26.7969 18.8281 25.6719 20.7969C25.3906 21.2656 24.875 21.5 24.3594 21.5H3.59375C3.07812 21.5 2.5625 21.2656 2.32812 20.7969C1.15625 18.8281 0.5 16.4844 0.5 14C0.5 6.54688 6.54688 0.5 14 0.5ZM14 19.25C15.0312 19.25 15.875 18.4531 15.875 17.375C15.875 16.3438 15.0312 15.5 14 15.5C12.9219 15.5 12.125 16.3438 12.125 17.375C12.125 18.4531 12.9219 19.25 14 19.25ZM23.9375 19.25C24.7812 17.6562 25.25 15.875 25.25 14C25.25 7.8125 20.1875 2.75 14 2.75C7.76562 2.75 2.75 7.8125 2.75 14C2.75 15.875 3.17188 17.6562 4.01562 19.25H10.3438C10.0156 18.6875 9.875 18.0781 9.875 17.375C9.875 15.125 11.7031 13.25 14 13.25C14.3281 13.25 14.6562 13.3438 14.9844 13.3906L18.6406 7.76562C19.0156 7.25 19.6719 7.10938 20.2344 7.4375C20.75 7.8125 20.8906 8.51562 20.5625 9.03125L16.9531 14.5156C17.6562 15.2656 18.125 16.2969 18.125 17.375C18.125 18.0781 17.9375 18.6875 17.6094 19.25H23.9375ZM14 5C14.7969 5 15.5 5.70312 15.5 6.5C15.5 7.34375 14.7969 8 14 8C13.1562 8 12.5 7.34375 12.5 6.5C12.5 5.70312 13.1562 5 14 5Z" fill="white"/>
</svg>
