<svg width="48" height="48" viewBox="0 0 48 48" fill="none" xmlns="http://www.w3.org/2000/svg">
<path d="M47.5225 24.5757C47.5225 22.9548 47.3657 21.2816 47.1042 19.713H24.464V28.9677H37.4312C36.9083 31.9481 35.1828 34.5624 32.6208 36.2356L40.3592 42.2485C44.9082 38.0133 47.5225 31.8435 47.5225 24.5757Z" fill="#4280EF"/>
<path d="M24.4644 48C30.9479 48 36.3858 45.8562 40.3596 42.1962L32.6211 36.2355C30.4773 37.6995 27.7061 38.5361 24.4644 38.5361C18.1899 38.5361 12.909 34.3009 10.9743 28.6539L3.02673 34.7715C7.10511 42.8759 15.3664 48 24.4644 48Z" fill="#34A353"/>
<path d="M10.9745 28.6018C9.98104 25.6214 9.98104 22.3796 10.9745 19.3993L3.02689 13.2295C-0.371756 20.0268 -0.371756 28.0266 3.02689 34.7716L10.9745 28.6018Z" fill="#F6B704"/>
<path d="M24.4643 9.51707C27.863 9.46479 31.2094 10.772 33.6668 13.1248L40.5164 6.22302C36.1766 2.14466 30.4251 -0.0513741 24.4643 0.000912552C15.3664 0.000912552 7.10511 5.125 3.02673 13.2294L10.9743 19.3992C12.9089 13.7 18.1899 9.51707 24.4643 9.51707Z" fill="#E54335"/>
</svg>
