<svg width="50" height="50" viewBox="0 0 50 50" fill="none" xmlns="http://www.w3.org/2000/svg">
<rect width="50" height="50" rx="12" fill="#FFDDD2"/>
<path d="M24.9531 28C22.2812 28 20.0781 25.8438 20.0781 23.125C20.0781 20.4531 22.2812 18.25 24.9531 18.25C27.6719 18.25 29.8281 20.4531 29.8281 23.125C29.8281 25.8438 27.6719 28 24.9531 28ZM24.9531 20.5C23.5469 20.5 22.3281 21.7188 22.3281 23.125C22.3281 24.5781 23.5469 25.75 24.9531 25.75C26.4062 25.75 27.5781 24.5781 27.5781 23.125C27.5781 21.7188 26.4062 20.5 24.9531 20.5ZM34 20.5C31.8906 20.5 30.25 18.8594 30.25 16.75C30.25 14.6875 31.8906 13 34 13C36.0625 13 37.75 14.6875 37.75 16.75C37.75 18.8594 36.0625 20.5 34 20.5ZM27.2969 29.5C31 29.5 34 32.3125 34 35.7812C34 36.4844 33.3906 37 32.6406 37H17.3125C16.5625 37 16 36.4844 16 35.7812C16 32.3125 18.9531 29.5 22.6562 29.5H27.2969ZM18.3438 34.75H31.6094C31.0938 33.0625 29.3594 31.75 27.2969 31.75H22.6562C20.5938 31.75 18.8594 33.0625 18.3438 34.75ZM35.8281 22C38.125 22 40 23.9688 40 26.4062C40 26.875 39.625 27.25 39.1562 27.25H29.7812C30.7656 26.1719 31.3281 24.7188 31.3281 23.125C31.3281 22.8906 31.2812 22.6562 31.2812 22.4219C31.7969 22.1875 32.3594 22 32.9688 22H35.8281ZM18.5781 23.125C18.5781 24.7188 19.1875 26.1719 20.1719 27.25H10.7969C10.3281 27.25 10 26.875 10 26.4062C10 23.9688 11.8281 22 14.125 22H16.9844C17.5938 22 18.1562 22.1406 18.6719 22.4219C18.625 22.6562 18.5781 22.8906 18.5781 23.125ZM16 20.5C13.8906 20.5 12.25 18.8594 12.25 16.75C12.25 14.6875 13.8906 13 16 13C18.0625 13 19.75 14.6875 19.75 16.75C19.75 18.8594 18.0625 20.5 16 20.5Z" fill="#FE4D16"/>
</svg>
