<svg width="28" height="24" viewBox="0 0 28 24" fill="none" xmlns="http://www.w3.org/2000/svg">
<path d="M26.3281 14.6719C27.0781 15.2812 27.5 16.2188 27.4531 17.1562C27.4531 18.1406 26.9844 19.0312 26.1875 19.5938L21.5 23.1562C20.75 23.7188 19.8125 24 18.875 24H1.625C0.96875 24 0.5 23.5312 0.5 22.9219C0.5 22.2656 0.96875 21.7969 1.625 21.7969H18.875C19.3438 21.7969 19.7656 21.6094 20.1406 21.375L24.875 17.8125C25.3438 17.4375 25.3906 16.7812 24.875 16.3594C24.5469 16.0781 23.9375 16.0781 23.5625 16.3594L20.7031 18.5156C20.3281 18.7969 19.9062 18.9375 19.4375 18.9375H13.1094C12.7812 18.9375 12.5 18.6562 12.5 18.3281C12.5 17.9531 12.7812 17.6719 13.1094 17.6719H15.9219C17.3281 17.6719 17.2812 15.7969 15.9688 15.7969H9.21875C8.375 15.7969 7.57812 16.0312 6.92188 16.5469L5 18.0469H1.625C0.96875 18.0469 0.5 17.5312 0.5 16.9219C0.5 16.2656 0.96875 15.7969 1.625 15.7969H4.20312L5.5625 14.7656C6.59375 13.9688 7.90625 13.5 9.21875 13.5H15.9688C17.7969 13.5 19.2031 14.9062 19.2031 16.6875H19.3906L22.2031 14.5781C23.0938 13.875 24.875 13.4062 26.3281 14.6719ZM13.5781 8.25C14.375 8.34375 15.0312 8.20312 15.0781 7.875C15.125 7.64062 15.125 7.54688 13.6719 7.125L13.3438 7.03125C12.5 6.75 10.25 6.09375 10.6719 3.79688C10.8594 2.67188 11.6562 1.92188 12.875 1.64062V1.125C12.875 0.515625 13.3438 0 13.9531 0C14.6094 0 15.0781 0.515625 15.0781 1.125V1.6875C15.3594 1.73438 15.6875 1.82812 16.0156 1.92188C16.625 2.15625 16.9062 2.76562 16.7188 3.375C16.5312 3.98438 15.875 4.26562 15.3125 4.07812C14.8906 3.9375 14.6094 3.84375 14.375 3.79688C13.5781 3.70312 12.9219 3.84375 12.875 4.17188C12.8281 4.35938 12.8281 4.5 14 4.875L14.2812 4.92188C15.5 5.29688 17.7031 5.90625 17.2812 8.25C17.0938 9.375 16.2969 10.125 15.0781 10.4062V10.875C15.0781 11.5312 14.6094 12 13.9531 12C13.3438 12 12.875 11.5312 12.875 10.875V10.3594C12.4062 10.2656 11.9844 10.125 11.5625 9.98438L11.375 9.89062C10.7656 9.70312 10.4375 9.04688 10.6719 8.4375C10.8594 7.875 11.5156 7.54688 12.125 7.78125L12.3125 7.875C12.7344 8.01562 13.2031 8.15625 13.5781 8.25Z" fill="white"/>
</svg>
