<svg width="15" height="21" viewBox="0 0 15 21" fill="none" xmlns="http://www.w3.org/2000/svg">
<path d="M13.75 18C14.4141 18 15 18.5859 15 19.25C15 19.9531 14.4141 20.5 13.75 20.5H1.25C0.546875 20.5 0 19.9531 0 19.25C0 18.5859 0.546875 18 1.25 18V17.1797C1.25 16.0859 1.5625 15.0703 2.22656 14.1719L5 10.5L2.22656 6.86719C1.5625 5.96875 1.25 4.95312 1.25 3.85938V3C0.546875 3 0 2.45312 0 1.75C0 1.08594 0.546875 0.5 1.25 0.5H13.75C14.4141 0.5 15 1.08594 15 1.75C15 2.45312 14.4141 3 13.75 3V3.85938C13.75 4.95312 13.3984 5.96875 12.7344 6.86719L10 10.5L12.7344 14.1719C13.3984 15.0703 13.75 16.0859 13.75 17.1797V18ZM4.33594 5.5H10.625L10.7422 5.34375C11.0547 4.91406 11.25 4.40625 11.25 3.85938V3H3.75V3.85938C3.75 4.40625 3.90625 4.91406 4.21875 5.34375L4.33594 5.5ZM7.5 11.3594L4.33594 15.5H10.625L7.5 11.3594Z" fill="#269137"/>
</svg>
