<svg width="24" height="24" viewBox="0 0 24 24" fill="none" xmlns="http://www.w3.org/2000/svg">
<path d="M15.375 0C20.1094 0 24 3.89062 24 8.625C24 13.8281 19.2656 18.0469 13.9219 17.1094L12.9844 18.0469C12.6094 18.375 12.1875 18.5625 11.7188 18.5625H10.4062V19.5C10.4062 20.4844 9.5625 21.2812 8.57812 21.2812H7.6875V22.2188C7.6875 23.2031 6.84375 24 5.85938 24H1.78125C0.796875 24 0 23.2031 0 22.2188V18C0 17.3438 0.234375 16.7344 0.703125 16.2656L6.89062 10.0781C6.79688 9.5625 6.79688 9.09375 6.79688 8.625C6.79688 3.89062 10.6406 0 15.375 0ZM13.8281 14.7656C18.0469 15.8438 21.75 12.6094 21.75 8.625C21.75 5.10938 18.8906 2.25 15.375 2.25C11.8594 2.25 9.04688 5.10938 9.04688 8.625C9.04688 9.14062 9.09375 9.65625 9.23438 10.1719L9.375 10.7812L2.29688 17.8594C2.25 17.9062 2.25 17.9531 2.25 18V21.75H5.4375V19.0312H8.15625V16.3125H11.5312L13.2188 14.625L13.8281 14.7656ZM17.25 5.25C18.0469 5.25 18.75 5.95312 18.75 6.75C18.75 7.59375 18.0469 8.25 17.25 8.25C16.4062 8.25 15.75 7.59375 15.75 6.75C15.75 5.95312 16.4062 5.25 17.25 5.25Z" fill="white"/>
</svg>
