<svg width="28" height="22" viewBox="0 0 28 22" fill="none" xmlns="http://www.w3.org/2000/svg">
<path d="M26.375 0.5C26.9844 0.5 27.5 1.01562 27.5 1.625V20.375C27.5 21.0312 26.9844 21.5 26.375 21.5C25.7188 21.5 25.25 21.0312 25.25 20.375V20.2344L16.5312 17.7969C16.25 19.9062 14.4688 21.5 12.3125 21.5C9.92188 21.5 8 19.5781 8 17.1875C8 16.625 8.09375 16.0156 8.32812 15.5L2.65625 13.9062C2.5625 14.375 2.14062 14.75 1.625 14.75C0.96875 14.75 0.5 14.2812 0.5 13.625V8.375C0.5 7.76562 0.96875 7.25 1.625 7.25C2.14062 7.25 2.5625 7.67188 2.65625 8.14062L25.25 1.8125V1.625C25.25 1.01562 25.7188 0.5 26.375 0.5ZM14.375 17.1875H14.3281L10.5781 16.1094C10.3438 16.4375 10.25 16.8125 10.25 17.1875C10.25 18.3594 11.1406 19.25 12.3125 19.25C13.4375 19.25 14.375 18.3594 14.375 17.1875ZM2.75 11.5625L25.25 17.8906V4.15625L2.75 10.4844V11.5625Z" fill="white"/>
</svg>
