<svg width="28" height="21" viewBox="0 0 28 21" fill="none" xmlns="http://www.w3.org/2000/svg">
<path d="M26.1804 0C26.7898 0 27.3054 0.515625 27.3054 1.125V19.875C27.3054 20.5312 26.7898 21 26.1804 21C25.5242 21 25.0554 20.5312 25.0554 19.875V19.7344L16.3367 17.2969C16.0554 19.4062 14.2742 21 12.1179 21C9.72729 21 7.80542 19.0781 7.80542 16.6875C7.80542 16.125 7.89917 15.5156 8.13354 15L2.46167 13.4062C2.36792 13.875 1.94604 14.25 1.43042 14.25C0.77417 14.25 0.30542 13.7812 0.30542 13.125V7.875C0.30542 7.26562 0.77417 6.75 1.43042 6.75C1.94604 6.75 2.36792 7.17188 2.46167 7.64062L25.0554 1.3125V1.125C25.0554 0.515625 25.5242 0 26.1804 0ZM14.1804 16.6875H14.1335L10.3835 15.6094C10.1492 15.9375 10.0554 16.3125 10.0554 16.6875C10.0554 17.8594 10.946 18.75 12.1179 18.75C13.2429 18.75 14.1804 17.8594 14.1804 16.6875ZM2.55542 11.0625L25.0554 17.3906V3.65625L2.55542 9.98438V11.0625Z" fill="#FFCA28"/>
</svg>
