<svg width="31" height="24" viewBox="0 0 31 24" fill="none" xmlns="http://www.w3.org/2000/svg">
<path d="M20.5 8.25C20.5 12.8438 16.0938 16.5 10.75 16.5C9.85938 16.5 9.01562 16.4062 8.17188 16.2188C6.76562 17.1094 4.70312 18 2.125 18C1.65625 18 1.23438 17.7656 1.09375 17.2969C0.90625 16.875 0.953125 16.4062 1.28125 16.0312C1.32812 16.0312 2.35938 14.9062 3.10938 13.4062C1.79688 12 1 10.2188 1 8.25C1 3.70312 5.35938 0 10.75 0C16.0938 0 20.5 3.70312 20.5 8.25ZM10.75 14.25C14.875 14.25 18.25 11.5781 18.25 8.25C18.25 4.96875 14.875 2.25 10.75 2.25C6.57812 2.25 3.25 4.96875 3.25 8.25C3.25 9.9375 4.04688 11.1562 4.75 11.8594L5.875 13.0312L5.125 14.4844C4.9375 14.7656 4.75 15.0938 4.5625 15.4219C5.40625 15.1875 6.20312 14.8125 7 14.2969L7.79688 13.8281L8.6875 14.0156C9.39062 14.2031 10.0469 14.25 10.75 14.25ZM29.0781 20.8125C29.8281 22.3125 30.8594 23.3906 30.8594 23.4375C31 23.5312 31 23.6719 30.9531 23.8125C30.9062 23.9531 30.7656 24 30.625 24C28.9375 24 27.4844 23.5781 26.3125 23.0156C25.0469 23.625 23.5469 24 22 24C17.7344 24 14.2188 21.375 13.2344 17.7656C18.25 16.7812 22 12.8906 22 8.25C22 8.01562 21.9531 7.78125 21.9531 7.54688C21.9531 7.54688 21.9531 7.5 22 7.5C26.9688 7.5 31 11.2031 31 15.75C31 17.6719 30.25 19.4062 29.0781 20.8125Z" fill="white"/>
</svg>
