<svg width="27" height="18" viewBox="0 0 27 18" fill="none" xmlns="http://www.w3.org/2000/svg">
<path d="M24 0C25.6406 0 27 1.35938 27 3V15C27 16.6875 25.6406 18 24 18H3C1.3125 18 0 16.6875 0 15V3C0 1.35938 1.3125 0 3 0H24ZM24.75 12.75V5.25C23.0625 5.25 21.75 3.9375 21.75 2.25H5.25C5.25 3.9375 3.89062 5.25 2.25 5.25V12.75C3.89062 12.75 5.25 14.1094 5.25 15.75H21.75C21.75 14.1094 23.0625 12.75 24.75 12.75ZM17.25 9C17.25 11.5312 15.5625 13.5 13.5 13.5C11.3906 13.5 9.75 11.5312 9.75 9C9.75 6.51562 11.3906 4.5 13.5 4.5C15.5625 4.5 17.25 6.51562 17.25 9Z" fill="white"/>
</svg>
