<svg width="25" height="21" viewBox="0 0 25 21" fill="none" xmlns="http://www.w3.org/2000/svg">
<path d="M24.375 11.4375H20.9375V13H23.75C24.4141 13 25 13.5859 25 14.25V19.25C25 19.9531 24.4141 20.5 23.75 20.5H16.25C15.5469 20.5 15 19.9531 15 19.25V14.25C15 13.5859 15.5469 13 16.25 13H19.0625V11.4375H5.9375V13H8.75C9.41406 13 10 13.5859 10 14.25V19.25C10 19.9531 9.41406 20.5 8.75 20.5H1.25C0.546875 20.5 0 19.9531 0 19.25V14.25C0 13.5859 0.546875 13 1.25 13H4.0625V11.4375H0.625C0.273438 11.4375 0 11.1641 0 10.8125V10.1875C0 9.875 0.273438 9.5625 0.625 9.5625H11.5625V8H8.75C8.04688 8 7.5 7.45312 7.5 6.75V1.75C7.5 1.08594 8.04688 0.5 8.75 0.5H16.25C16.9141 0.5 17.5 1.08594 17.5 1.75V6.75C17.5 7.45312 16.9141 8 16.25 8H13.4375V9.5625H24.375C24.6875 9.5625 25 9.875 25 10.1875V10.8125C25 11.1641 24.6875 11.4375 24.375 11.4375ZM7.5 15.5H2.5V18H7.5V15.5ZM10 5.5H15V3H10V5.5ZM22.5 15.5H17.5V18H22.5V15.5Z" fill="#269137"/>
</svg>
