<svg width="27" height="24" viewBox="0 0 27 24" fill="none" xmlns="http://www.w3.org/2000/svg">
<path d="M25 10.5C25 10.9219 24.625 11.25 24.2031 11.25H13.75V0.796875C13.75 0.375 14.0781 0 14.4531 0H14.5C20.125 0.421875 24.5781 4.875 25 10.5ZM16 9H22.4688C21.6719 5.85938 19.1406 3.32812 16 2.53125V9ZM11.5 13.5L18.7656 20.8125C19.0938 21.1406 19.0938 21.7031 18.7188 21.9375C16.9375 23.25 14.7344 24 12.3906 24H12.25C6.29688 24 1.1875 19.125 1 13.1719C0.765625 7.3125 5.07812 2.4375 10.6562 1.64062C10.6562 1.64062 10.7031 1.64062 10.75 1.64062C11.125 1.64062 11.5 1.96875 11.5 2.39062V13.5ZM12.3438 21.75C13.5625 21.75 14.7344 21.5156 15.8125 21.0469L9.90625 15.0938L9.25 14.4375V4.3125C5.59375 5.57812 3.10938 9.09375 3.25 13.0781C3.39062 17.8125 7.51562 21.75 12.25 21.75H12.3438ZM25.7031 13.5C26.1719 13.5 26.5469 13.9219 26.4531 14.3438C26.125 16.9688 24.8594 19.2656 23.0312 20.9531C22.8906 21.0938 22.75 21.1406 22.5625 21.1406C22.375 21.1406 22.1406 21.0938 22 20.9062L14.5938 13.5H25.7031Z" fill="#121212"/>
</svg>
