<svg width="28" height="21" viewBox="0 0 28 21" fill="none" xmlns="http://www.w3.org/2000/svg">
<path d="M13.3047 11.125C13.6562 11.7109 13.4609 12.4531 12.875 12.8438C12.6797 12.9609 12.4453 13 12.25 13C11.8203 13 11.3906 12.8047 11.1562 12.4141L10.0625 10.6172V19.25C10.0625 19.9531 9.47656 20.5 8.8125 20.5C8.10938 20.5 7.5625 19.9531 7.5625 19.25V13.625H6.9375V19.25C6.9375 19.9531 6.35156 20.5 5.64844 20.5C4.98438 20.5 4.39844 19.9531 4.39844 19.25V10.6172L3.30469 12.4141C2.91406 13 2.17188 13.1953 1.58594 12.8438C1 12.4531 0.804688 11.7109 1.15625 11.125L3.92969 6.71094C4.39844 5.96875 5.17969 5.5 6.03906 5.5H8.42188C9.28125 5.5 10.0625 5.96875 10.5312 6.71094L13.3047 11.125ZM7.25 4.25C6.19531 4.25 5.33594 3.42969 5.33594 2.375C5.33594 1.35938 6.19531 0.5 7.25 0.5C8.26562 0.5 9.125 1.35938 9.125 2.375C9.125 3.42969 8.26562 4.25 7.25 4.25ZM15.6594 8.89844C15.1906 9.40625 14.3703 9.40625 13.9016 8.89844C13.3938 8.42969 13.3938 7.60938 13.9016 7.14062L18.9016 2.14062C19.3703 1.63281 20.1906 1.63281 20.6594 2.14062L25.6594 7.14062C26.1672 7.60938 26.1672 8.42969 25.6594 8.89844C25.425 9.13281 25.1125 9.25 24.8 9.25C24.4484 9.25 24.1359 9.13281 23.9016 8.89844L21.05 6.04688V13C21.05 13.7031 20.4641 14.25 19.8 14.25C19.0969 14.25 18.55 13.7031 18.55 13V6.04688L15.6594 8.89844ZM26.05 16.75C26.7141 16.75 27.3 17.3359 27.3 18C27.3 18.7031 26.7141 19.25 26.05 19.25H13.55C12.8469 19.25 12.3 18.7031 12.3 18C12.3 17.3359 12.8469 16.75 13.55 16.75H26.05Z" fill="#269137"/>
</svg>
