<svg width="21" height="21" viewBox="0 0 21 21" fill="none" xmlns="http://www.w3.org/2000/svg">
<path d="M18.9062 13.4297C19.6875 13.7812 20.1172 14.6406 19.9219 15.4609L19.1016 19.1328C18.9062 19.9531 18.2031 20.5 17.3438 20.5C7.77344 20.5 0 12.7266 0 3.15625C0 2.29688 0.546875 1.59375 1.36719 1.4375L5.03906 0.578125C5.85938 0.382812 6.71875 0.8125 7.07031 1.59375L8.75 5.57812C9.0625 6.28125 8.86719 7.14062 8.28125 7.60938L6.67969 8.9375C7.8125 10.9688 9.53125 12.6875 11.5625 13.8203L12.8906 12.2578C13.3594 11.6328 14.2188 11.4375 14.9219 11.7109L18.9062 13.4297ZM17.8516 18.8594L18.7109 15.1875C18.7891 14.9141 18.6328 14.6797 18.3984 14.5625L14.4531 12.8828C14.2578 12.8047 13.9844 12.8438 13.8281 13.0391L12.2266 14.9922C12.0312 15.2266 11.7188 15.3047 11.4844 15.1484C8.82812 13.8594 6.64062 11.6719 5.35156 9.05469C5.19531 8.78125 5.27344 8.46875 5.50781 8.27344L7.46094 6.67188C7.65625 6.51562 7.69531 6.28125 7.61719 6.04688L5.89844 2.10156C5.82031 1.90625 5.625 1.75 5.42969 1.75C5.39062 1.75 5.35156 1.78906 5.3125 1.78906L1.64062 2.64844C1.40625 2.6875 1.25 2.88281 1.25 3.15625C1.25 12.0234 8.47656 19.25 17.3438 19.25C17.6172 19.25 17.8125 19.0938 17.8516 18.8594Z" fill="#3BB24A"/>
</svg>
