<svg width="24" height="20" viewBox="0 0 24 20" fill="none" xmlns="http://www.w3.org/2000/svg">
<path d="M10.6094 0C10.8047 0 11.0781 0.15625 11.1562 0.351562L15.2578 7.5H19.7109C21.1172 7.5 23.5 8.63281 23.5 10C23.5 11.4062 21.1172 12.5 19.7109 12.5H15.2578L11.1562 19.6875C11.0391 19.8828 10.8438 20 10.6094 20H8.07031C7.64062 20 7.32812 19.6094 7.44531 19.2188L9.35938 12.5H5.33594L3.65625 14.7656C3.53906 14.9219 3.38281 15 3.14844 15H1.58594C1.19531 15 0.882812 14.6484 1 14.2578L2.21094 10L1 5.78125C0.882812 5.39062 1.19531 5 1.58594 5H3.14844C3.38281 5 3.53906 5.11719 3.65625 5.27344L5.33594 7.5H9.35938L7.44531 0.820312C7.32812 0.429688 7.64062 0 8.07031 0H10.6094Z" fill="#81D4FA"/>
</svg>
