<svg width="56" height="52" viewBox="0 0 56 52" fill="none" xmlns="http://www.w3.org/2000/svg">
<path d="M32 5.5C44.375 5.5 54.5 15.625 54.5 28C54.5 40.4688 44.375 50.5 32 50.5C19.5312 50.5 9.5 40.4688 9.5 28C9.5 15.625 19.5312 5.5 32 5.5ZM32 49C43.5312 49 53 39.625 53 28C53 16.4688 43.5312 7 32 7C20.375 7 11 16.4688 11 28C11 39.625 20.375 49 32 49ZM32.75 27.7188L41.4688 36.5312C41.75 36.8125 41.75 37.2812 41.4688 37.5625C41.375 37.75 41.1875 37.75 41 37.75C40.7188 37.75 40.5312 37.75 40.4375 37.5625L31.25 28.375V13C31.25 12.625 31.5312 12.25 32 12.25C32.375 12.25 32.75 12.625 32.75 13V27.7188Z" fill="#757575"/>
<rect x="1" y="1" width="22" height="22" rx="11" fill="#269137"/>
<rect x="1" y="1" width="22" height="22" rx="11" stroke="white" stroke-width="2"/>
<path d="M16.918 11.2305C16.7812 11.5586 16.4531 11.75 16.125 11.75H13.5V17C13.5 17.4922 13.0898 17.875 12.625 17.875H10.875C10.3828 17.875 10 17.4922 10 17V11.75H7.375C7.01953 11.75 6.69141 11.5586 6.55469 11.2305C6.41797 10.9023 6.5 10.5195 6.74609 10.2734L11.1211 5.89844C11.2852 5.73438 11.5039 5.625 11.75 5.625C11.9688 5.625 12.1875 5.73438 12.3516 5.89844L16.7266 10.2734C16.9727 10.5195 17.0547 10.9023 16.918 11.2305Z" fill="white"/>
</svg>
