<svg width="28" height="24" viewBox="0 0 28 24" fill="none" xmlns="http://www.w3.org/2000/svg">
<path d="M5 18C5.79688 18 6.5 18.7031 6.5 19.5V22.5C6.5 23.3438 5.79688 24 5 24H2C1.15625 24 0.5 23.3438 0.5 22.5V19.5C0.5 18.7031 1.15625 18 2 18H5ZM4.25 21.75V20.25H2.75V21.75H4.25ZM12.125 12C12.9219 12 13.625 12.7031 13.625 13.5V22.5C13.625 23.3438 12.9219 24 12.125 24H9.125C8.28125 24 7.625 23.3438 7.625 22.5V13.5C7.625 12.7031 8.28125 12 9.125 12H12.125ZM11.375 21.75V14.25H9.875V21.75H11.375ZM26.375 0C27.1719 0 27.875 0.703125 27.875 1.5V22.5C27.875 23.3438 27.1719 24 26.375 24H23.375C22.5312 24 21.875 23.3438 21.875 22.5V1.5C21.875 0.703125 22.5312 0 23.375 0H26.375ZM25.625 21.75V2.25H24.125V21.75H25.625ZM19.25 6C20.0469 6 20.75 6.70312 20.75 7.5V22.5C20.75 23.3438 20.0469 24 19.25 24H16.25C15.4062 24 14.75 23.3438 14.75 22.5V7.5C14.75 6.70312 15.4062 6 16.25 6H19.25ZM18.5 21.75V8.25H17V21.75H18.5Z" fill="white"/>
</svg>
