<svg width="28" height="24" viewBox="0 0 28 24" fill="none" xmlns="http://www.w3.org/2000/svg">
<path d="M26 0C26.7969 0 27.5 0.703125 27.5 1.5V22.5C27.5 23.3438 26.7969 24 26 24C25.1562 24 24.5 23.3438 24.5 22.5V1.5C24.5 0.703125 25.1562 0 26 0ZM8 13.5C8.79688 13.5 9.5 14.2031 9.5 15V22.5C9.5 23.3438 8.79688 24 8 24C7.15625 24 6.5 23.3438 6.5 22.5V15C6.5 14.2031 7.15625 13.5 8 13.5ZM2 18C2.79688 18 3.5 18.7031 3.5 19.5V22.5C3.5 23.3438 2.79688 24 2 24C1.15625 24 0.5 23.3438 0.5 22.5V19.5C0.5 18.7031 1.15625 18 2 18ZM20 4.5C20.7969 4.5 21.5 5.20312 21.5 6V22.5C21.5 23.3438 20.7969 24 20 24C19.1562 24 18.5 23.3438 18.5 22.5V6C18.5 5.20312 19.1562 4.5 20 4.5ZM14 9C14.7969 9 15.5 9.70312 15.5 10.5V22.5C15.5 23.3438 14.7969 24 14 24C13.1562 24 12.5 23.3438 12.5 22.5V10.5C12.5 9.70312 13.1562 9 14 9Z" fill="white"/>
</svg>
