<svg width="12" height="11" viewBox="0 0 12 11" fill="none" xmlns="http://www.w3.org/2000/svg">
<path d="M8.0625 5.0199C8.29688 5.23083 8.29688 5.62927 8.0625 5.84021L4.6875 9.02771C4.52344 9.19177 4.28906 9.21521 4.07812 9.1449C3.86719 9.05115 3.75 8.84021 3.75 8.60583V6.91833H0.75C0.328125 6.91833 0 6.59021 0 6.16833V4.66833C0 4.2699 0.328125 3.91833 0.75 3.91833H3.75V2.23083C3.75 2.0199 3.86719 1.80896 4.07812 1.71521C4.28906 1.6449 4.52344 1.66833 4.6875 1.8324L8.0625 5.0199ZM9.75 0.168335C10.9922 0.168335 12 1.17615 12 2.41833V8.41833C12 9.68396 10.9922 10.6683 9.75 10.6683H8.25C7.82812 10.6683 7.5 10.3402 7.5 9.91833C7.5 9.5199 7.82812 9.16833 8.25 9.16833H9.75C10.1484 9.16833 10.5 8.84021 10.5 8.41833V2.41833C10.5 2.0199 10.1484 1.66833 9.75 1.66833H8.25C7.82812 1.66833 7.5 1.34021 7.5 0.918335C7.5 0.519897 7.82812 0.168335 8.25 0.168335H9.75Z" fill="#3BB24A"/>
</svg>
