<svg width="23" height="21" viewBox="0 0 23 21" fill="none" xmlns="http://www.w3.org/2000/svg">
<path d="M21.5835 0.5C22.2476 0.5 22.8335 1.08594 22.8335 1.75V19.25C22.8335 19.9531 22.2476 20.5 21.5835 20.5C20.8804 20.5 20.3335 19.9531 20.3335 19.25V1.75C20.3335 1.08594 20.8804 0.5 21.5835 0.5ZM6.5835 11.75C7.24756 11.75 7.8335 12.3359 7.8335 13V19.25C7.8335 19.9531 7.24756 20.5 6.5835 20.5C5.88037 20.5 5.3335 19.9531 5.3335 19.25V13C5.3335 12.3359 5.88037 11.75 6.5835 11.75ZM1.5835 15.5C2.24756 15.5 2.8335 16.0859 2.8335 16.75V19.25C2.8335 19.9531 2.24756 20.5 1.5835 20.5C0.880371 20.5 0.333496 19.9531 0.333496 19.25V16.75C0.333496 16.0859 0.880371 15.5 1.5835 15.5ZM16.5835 4.25C17.2476 4.25 17.8335 4.83594 17.8335 5.5V19.25C17.8335 19.9531 17.2476 20.5 16.5835 20.5C15.8804 20.5 15.3335 19.9531 15.3335 19.25V5.5C15.3335 4.83594 15.8804 4.25 16.5835 4.25ZM11.5835 8C12.2476 8 12.8335 8.58594 12.8335 9.25V19.25C12.8335 19.9531 12.2476 20.5 11.5835 20.5C10.8804 20.5 10.3335 19.9531 10.3335 19.25V9.25C10.3335 8.58594 10.8804 8 11.5835 8Z" fill="#269137"/>
</svg>
