<svg width="50" height="50" viewBox="0 0 50 50" fill="none" xmlns="http://www.w3.org/2000/svg">
<rect width="50" height="50" rx="12" fill="#CCE7D0"/>
<path d="M21.25 34.3281V32.5H28.75L28.7031 34.3281C28.7031 34.5625 28.6094 34.9375 28.4688 35.1719L27.6719 36.3438C27.4375 36.7188 26.875 37 26.4062 37H23.5469C23.0781 37 22.5156 36.7188 22.2812 36.3438L21.4844 35.1719C21.2969 34.8906 21.25 34.6094 21.25 34.3281ZM25 13C29.5469 13.0469 33.25 16.7031 33.25 21.25C33.25 23.3594 32.4531 25.2344 31.1875 26.6875C30.3906 27.5781 29.2188 29.4531 28.75 31C28.75 31 28.75 31 28.75 31.0469H21.2031C21.2031 31 21.2031 31 21.2031 31C20.7344 29.4531 19.5625 27.5781 18.7656 26.6875C17.5 25.2344 16.75 23.3594 16.75 21.25C16.75 16.8906 20.2188 13.0469 25 13ZM29.5 25.2344C30.4375 24.1094 31 22.7031 31 21.25C31 17.9688 28.2812 15.2969 24.9531 15.25C21.25 15.2969 19 18.3438 19 21.25C19 22.7031 19.5156 24.1094 20.4531 25.2344C21.2031 26.0312 22.0938 27.3906 22.75 28.7969H27.2031C27.8594 27.3906 28.75 26.0312 29.5 25.2344ZM24.25 16.75C24.625 16.75 25 17.125 25 17.5C25 17.9219 24.625 18.25 24.25 18.25C22.9844 18.25 22 19.2812 22 20.5C22 20.9219 21.625 21.25 21.25 21.25C20.8281 21.25 20.5 20.9219 20.5 20.5C20.5 18.4375 22.1406 16.75 24.25 16.75Z" fill="#269137"/>
</svg>
