<svg width="25" height="25" viewBox="0 0 25 25" fill="none" xmlns="http://www.w3.org/2000/svg">
<path d="M21.8054 0.5C23.446 0.5 24.8054 1.85938 24.8054 3.5V17.0469C24.8054 18.6875 23.446 20.0469 21.8054 20.0469H15.0554L9.19604 24.4062C8.82104 24.6875 8.30542 24.4062 8.30542 23.9844V20.0469H3.80542C2.11792 20.0469 0.80542 18.6875 0.80542 17.0469V3.5C0.80542 1.85938 2.11792 0.5 3.80542 0.5H21.8054ZM22.5554 17.0469V3.5C22.5554 3.125 22.1804 2.75 21.8054 2.75H3.80542C3.38354 2.75 3.05542 3.125 3.05542 3.5V17.0469C3.05542 17.4219 3.38354 17.7969 3.80542 17.7969H10.5554V20.6094L14.3054 17.7969H21.8054C22.1804 17.7969 22.5554 17.4219 22.5554 17.0469ZM6.61792 9.54688C7.41479 9.78125 8.91479 10.2031 8.63354 11.75C8.44604 12.6875 7.64917 13.25 6.47729 13.25C6.28979 13.25 6.10229 13.25 5.91479 13.2031C5.53979 13.1562 5.11792 13.0156 4.78979 12.9219C4.41479 12.7812 4.13354 12.3125 4.27417 11.9375C4.41479 11.5156 4.78979 11.2812 5.16479 11.4219C5.49292 11.5625 5.82104 11.7031 6.14917 11.75C6.66479 11.8438 7.13354 11.7031 7.13354 11.5156C7.18042 11.2344 6.61792 11.1406 6.00854 10.9531C5.44604 10.7656 3.89917 10.3438 4.18042 8.79688C4.36792 7.67188 5.44604 7.10938 6.89917 7.29688C7.18042 7.34375 7.50854 7.4375 7.78979 7.53125C8.16479 7.67188 8.39917 8.09375 8.25854 8.51562C8.11792 8.89062 7.69604 9.125 7.27417 8.98438C7.08667 8.89062 6.85229 8.84375 6.66479 8.79688C6.14917 8.70312 5.68042 8.84375 5.68042 9.03125C5.63354 9.3125 6.10229 9.40625 6.61792 9.54688ZM19.3679 9.54688C20.1648 9.78125 21.6648 10.2031 21.3835 11.75C21.196 12.6875 20.3992 13.25 19.2273 13.25C19.0398 13.25 18.8523 13.25 18.6648 13.2031C18.2898 13.1562 17.8679 13.0156 17.5398 12.9219C17.1648 12.7812 16.8835 12.3125 17.0242 11.9375C17.1648 11.5156 17.5398 11.2812 17.9148 11.4219C18.2429 11.5625 18.571 11.7031 18.8992 11.75C19.4148 11.8438 19.8835 11.7031 19.8835 11.5156C19.9304 11.2344 19.3679 11.1406 18.7585 10.9531C18.196 10.7656 16.6492 10.3438 16.9304 8.79688C17.1179 7.67188 18.196 7.10938 19.6492 7.29688C19.9304 7.34375 20.2585 7.4375 20.5398 7.53125C20.9148 7.67188 21.1492 8.09375 21.0085 8.51562C20.8679 8.89062 20.446 9.125 20.0242 8.98438C19.8367 8.89062 19.6023 8.84375 19.4148 8.79688C18.8992 8.70312 18.4304 8.84375 18.4304 9.03125C18.3835 9.3125 18.8523 9.40625 19.3679 9.54688ZM15.2898 7.29688C15.571 7.39062 15.8054 7.71875 15.8054 8V12.5C15.8054 12.9219 15.4304 13.25 15.0554 13.25C14.6335 13.25 14.3054 12.9219 14.3054 12.5V10.25L13.3679 11.4688C13.0867 11.8438 12.4773 11.8438 12.196 11.4688L11.3054 10.25V12.5C11.3054 12.9219 10.9304 13.25 10.5554 13.25C10.1335 13.25 9.80542 12.9219 9.80542 12.5V8C9.80542 7.71875 9.99292 7.39062 10.2742 7.29688C10.6023 7.20312 10.9304 7.29688 11.1179 7.57812L12.8054 9.78125L14.446 7.57812C14.6335 7.29688 14.9617 7.20312 15.2898 7.29688Z" fill="#FFAB91"/>
</svg>
