<svg width="80" height="81" viewBox="0 0 80 81" fill="none" xmlns="http://www.w3.org/2000/svg">
<path d="M78 52.75C78 61.0703 71.2031 67.75 63 67.75H19.875C10.5 67.75 3 60.25 3 50.875C3 43.6094 7.6875 37.2812 14.25 35.0547C14.25 34.7031 14.25 34.3516 14.25 34C14.25 23.6875 22.5703 15.25 33 15.25C39.9141 15.25 46.0078 19.1172 49.1719 24.7422C50.9297 23.4531 53.1562 22.75 55.5 22.75C61.7109 22.75 66.75 27.7891 66.75 34C66.75 35.5234 66.3984 36.8125 65.9297 38.1016C72.8437 39.5078 78 45.6016 78 52.75Z" fill="white"/>
<path d="M48.2799 32.2149C49.92 32.2535 51.247 33.6445 51.2084 35.2846L50.8908 48.7809C50.8511 50.4679 49.4612 51.7481 47.821 51.7095L41.0729 51.5506L35.1114 55.8178C34.7299 56.0901 34.2211 55.7968 34.2321 55.3282L34.3247 51.3918L29.826 51.2859C28.1389 51.2462 26.8577 49.9032 26.8974 48.2161L27.2151 34.7199C27.2537 33.0797 28.5978 31.7516 30.2848 31.7913L48.2799 32.2149ZM34.8469 43.1518C35.1645 41.612 33.6748 41.1549 32.8837 40.9018C32.3715 40.7491 31.9051 40.6444 31.9586 40.3643C31.963 40.1769 32.4349 40.0473 32.9482 40.1532C33.1345 40.2044 33.3677 40.2568 33.553 40.3549C33.9714 40.5055 34.3987 40.2811 34.5481 39.9095C34.6986 39.491 34.4742 39.0638 34.1027 38.9144C33.8237 38.814 33.4979 38.7126 33.2178 38.6591C31.7695 38.4374 30.6784 38.9744 30.4645 40.0947C30.1469 41.6345 31.6835 42.0927 32.2414 42.2934C32.8462 42.4952 33.4063 42.6021 33.3528 42.8822C33.3484 43.0696 32.8765 43.1992 32.3632 43.0933C32.0363 43.0387 31.7116 42.8904 31.3868 42.7421C31.0152 42.5927 30.6348 42.8182 30.4843 43.2367C30.3349 43.6082 30.6051 44.0835 30.9766 44.2329C31.3025 44.3343 31.7209 44.4849 32.0947 44.5405C32.2811 44.5918 32.4685 44.5962 32.656 44.6006C33.8275 44.6282 34.6374 44.0846 34.8469 43.1518ZM41.9991 44.0703L42.105 39.5716C42.1117 39.2904 41.8851 38.9569 41.6061 38.8565C41.2803 38.7551 40.95 38.8411 40.756 39.1179L39.064 41.2818L37.4288 39.0395C37.2479 38.754 36.9221 38.6525 36.5919 38.7385C36.3085 38.8256 36.1133 39.1492 36.1067 39.4304L36.0008 43.9292C35.9909 44.3509 36.3112 44.6867 36.7329 44.6966C37.1078 44.7054 37.4905 44.3862 37.5004 43.9645L37.5533 41.7151L38.415 42.9545C38.6874 43.336 39.2966 43.3503 39.5866 42.982L40.5525 41.7857L40.4996 44.0351C40.4896 44.4568 40.8099 44.7926 41.2317 44.8025C41.6066 44.8113 41.9892 44.4921 41.9991 44.0703ZM47.5934 43.4518C47.9109 41.912 46.4213 41.4549 45.6301 41.2019C45.118 41.0492 44.6516 40.9444 44.705 40.6643C44.7095 40.4769 45.1814 40.3473 45.6947 40.4532C45.881 40.5045 46.1142 40.5568 46.2995 40.655C46.7179 40.8055 47.1452 40.5811 47.2946 40.2095C47.4451 39.7911 47.2207 39.3638 46.8491 39.2144C46.5702 39.114 46.2443 39.0126 45.9643 38.9591C44.516 38.7375 43.4249 39.2744 43.211 40.3947C42.8934 41.9346 44.4299 42.3927 44.9879 42.5934C45.5926 42.7952 46.1528 42.9021 46.0993 43.1822C46.0949 43.3697 45.623 43.4992 45.1097 43.3934C44.7828 43.3388 44.458 43.1905 44.1333 43.0422C43.7617 42.8927 43.3813 43.1182 43.2308 43.5367C43.0814 43.9083 43.3515 44.3835 43.7231 44.5329C44.0489 44.6344 44.4674 44.7849 44.8412 44.8406C45.0275 44.8918 45.215 44.8963 45.4024 44.9007C46.574 44.9282 47.3839 44.3846 47.5934 43.4518Z" fill="#0D3F46"/>
</svg>
