<svg width="21" height="21" viewBox="0 0 21 21" fill="none" xmlns="http://www.w3.org/2000/svg">
<path d="M13.1562 4.5625C13.0391 4.48438 13 4.36719 13 4.25C13 4.13281 13.0391 4.05469 13.1562 3.97656L15.5 3L16.4375 0.695312C16.5156 0.578125 16.6328 0.5 16.75 0.5C16.8672 0.5 16.9453 0.578125 17.0234 0.695312L18 3L20.3047 3.97656C20.4219 4.05469 20.5 4.13281 20.5 4.25C20.5 4.36719 20.4219 4.48438 20.3047 4.5625L18 5.5L17.0234 7.84375C16.9453 7.96094 16.8672 8 16.75 8C16.6328 8 16.5156 7.96094 16.4375 7.84375L15.5 5.5L13.1562 4.5625ZM20.3047 16.4766C20.4219 16.5547 20.5 16.6328 20.5 16.75C20.5 16.8672 20.4219 16.9844 20.3047 17.0625L18 18L17.0234 20.3438C16.9453 20.4609 16.8672 20.5 16.75 20.5C16.6328 20.5 16.5156 20.4609 16.4375 20.3438L15.5 18L13.1562 17.0625C13.0391 16.9844 13 16.8672 13 16.75C13 16.6328 13.0391 16.5547 13.1562 16.4766L15.5 15.5L16.4375 13.1953C16.5156 13.0781 16.6328 13 16.75 13C16.8672 13 16.9453 13.0781 17.0234 13.1953L18 15.5L20.3047 16.4766ZM15.5 10.5C15.5 10.7344 15.3438 10.9688 15.1484 11.0469L10.7344 13.2734L8.54688 17.6875C8.42969 17.8828 8.19531 18 8 18C7.72656 18 7.53125 17.8828 7.41406 17.6875L5.22656 13.2734L0.8125 11.0469C0.617188 10.9688 0.5 10.7344 0.5 10.5C0.5 10.2656 0.617188 10.0312 0.8125 9.95312L5.22656 7.72656L7.41406 3.35156C7.64844 2.92188 8.3125 2.92188 8.54688 3.35156L10.7344 7.72656L15.1484 9.95312C15.3438 10.0312 15.5 10.2656 15.5 10.5Z" fill="#81D4FA"/>
</svg>
