<svg width="15" height="15" viewBox="0 0 15 15" fill="none" xmlns="http://www.w3.org/2000/svg">
<path d="M9.94028 4.85156L13.8778 5.45312C14.2241 5.50781 14.4611 5.69922 14.5887 6.02734C14.6799 6.3737 14.6069 6.67448 14.37 6.92969L11.5262 9.71875L12.1825 13.7383C12.2372 14.0846 12.1187 14.3672 11.827 14.5859C11.5353 14.7865 11.2345 14.8047 10.9247 14.6406L7.39731 12.7812L3.89731 14.6406C3.56918 14.8047 3.25929 14.7865 2.96762 14.5859C2.69418 14.3672 2.57569 14.0846 2.61215 13.7383L3.29575 9.71875L0.451996 6.92969C0.196788 6.67448 0.123871 6.3737 0.233246 6.02734C0.342621 5.69922 0.570485 5.50781 0.91684 5.45312L4.85434 4.85156L6.60434 1.24219C6.78663 0.932292 7.05095 0.768229 7.39731 0.75C7.76189 0.768229 8.02621 0.932292 8.19028 1.24219L9.94028 4.85156Z" fill="#FFCA28"/>
</svg>
