<svg width="16" height="14" viewBox="0 0 16 14" fill="none" xmlns="http://www.w3.org/2000/svg">
<path d="M11.7852 5.92969C12.3867 6.53125 12.3867 7.48828 11.7852 8.08984L7.4375 12.4375C6.83594 13.0391 5.87891 13.0391 5.27734 12.4375L0.4375 7.59766C0.191406 7.35156 0 6.85938 0 6.50391V1.39062C0 0.980469 0.328125 0.625 0.765625 0.625H5.85156C6.20703 0.625 6.69922 0.84375 6.94531 1.08984L11.7852 5.92969ZM3.0625 4.5625C3.52734 4.5625 3.9375 4.17969 3.9375 3.6875C3.9375 3.22266 3.52734 2.8125 3.0625 2.8125C2.57031 2.8125 2.1875 3.22266 2.1875 3.6875C2.1875 4.17969 2.57031 4.5625 3.0625 4.5625ZM15.2852 5.92969C15.8867 6.53125 15.8867 7.48828 15.2852 8.08984L10.9375 12.4375C10.4453 12.957 9.65234 13.0117 9.07812 12.6562L14.1094 7.625C14.4375 7.29688 14.4375 6.75 14.1094 6.39453L8.33984 0.625H9.35156C9.70703 0.625 10.1992 0.84375 10.4453 1.08984L15.2852 5.92969Z" fill="#121212"/>
</svg>
