<svg width="51" height="50" viewBox="0 0 51 50" fill="none" xmlns="http://www.w3.org/2000/svg">
<rect x="0.5" width="50" height="50" rx="12" fill="#93CAD2"/>
<path d="M20.25 22.75C21.0469 22.75 21.75 23.4531 21.75 24.25C21.75 25.0938 21.0469 25.75 20.25 25.75C19.4062 25.75 18.75 25.0938 18.75 24.25C18.75 23.4531 19.4062 22.75 20.25 22.75ZM25.5 22.75C26.2969 22.75 27 23.4531 27 24.25C27 25.0938 26.2969 25.75 25.5 25.75C24.6562 25.75 24 25.0938 24 24.25C24 23.4531 24.6562 22.75 25.5 22.75ZM30.75 22.75C31.5469 22.75 32.25 23.4531 32.25 24.25C32.25 25.0938 31.5469 25.75 30.75 25.75C29.9062 25.75 29.25 25.0938 29.25 24.25C29.25 23.4531 29.9062 22.75 30.75 22.75ZM25.5 14.5C32.1094 14.5 37.5 18.9062 37.5 24.25C37.5 29.6406 32.1094 34 25.5 34C23.9531 34 22.5 33.7656 21.1406 33.3438C19.7812 34.3281 17.4844 35.5 14.625 35.5C14.1562 35.5 13.7344 35.2656 13.5469 34.8438C13.4062 34.4219 13.4531 33.9531 13.7812 33.625C13.8281 33.625 15.2812 32.0312 15.9375 30.2031C14.3906 28.5625 13.5 26.5 13.5 24.25C13.5 18.9062 18.8438 14.5 25.5 14.5ZM25.5 31.75C30.8438 31.75 35.25 28.4219 35.25 24.25C35.25 20.125 30.8438 16.75 25.5 16.75C20.1094 16.75 15.75 20.125 15.75 24.25C15.75 26.2656 16.7344 27.7656 17.5781 28.6562L18.5625 29.6875L18.0469 31C17.8125 31.6562 17.4844 32.3125 17.1094 32.875C18.2344 32.5 19.1719 31.9844 19.8281 31.5156L20.7188 30.8594L21.7969 31.1875C22.9688 31.5625 24.2344 31.75 25.5 31.75Z" fill="#0D3F46"/>
</svg>
