<svg width="22" height="19" viewBox="0 0 22 19" fill="none" xmlns="http://www.w3.org/2000/svg">
<path d="M15.5288 1.72656C20.5679 5.16406 21.0366 12.0781 16.9351 16.1406C15.0991 17.9766 12.7163 18.875 10.3335 18.875C7.91162 18.9141 5.52881 17.9766 3.69287 16.1406C0.372559 12.8594 0.0600586 7.70312 2.71631 4.03125C3.18506 3.36719 4.0835 3.28906 4.66943 3.875C5.09912 4.30469 5.09912 4.96875 4.74756 5.47656C2.79443 8.17188 3.02881 11.9609 5.45068 14.3828C8.4585 17.3906 13.6147 17.0391 16.0757 13.25C17.5601 11.0625 17.5991 8.21094 16.1929 5.94531C15.1382 4.22656 13.4585 3.09375 11.5835 2.78125V3.91406C11.5835 4.65625 10.8804 5.24219 10.0991 5.125C9.47412 5.04688 9.04443 4.46094 9.04443 3.83594V1.0625C9.04443 0.554688 9.47412 0.125 9.98193 0.164062C11.9351 0.164062 13.9272 0.632812 15.5288 1.72656ZM9.66943 10.1641L6.54443 7.03906C6.15381 6.6875 6.15381 6.10156 6.54443 5.75C6.896 5.35938 7.48193 5.35938 7.8335 5.75L10.9585 8.875C11.3491 9.22656 11.3491 9.8125 10.9585 10.1641C10.8022 10.3594 10.5679 10.4375 10.3335 10.4375C10.0601 10.4375 9.82568 10.3594 9.66943 10.1641Z" fill="#269137"/>
</svg>
