<svg width="22" height="19" viewBox="0 0 22 19" fill="none" xmlns="http://www.w3.org/2000/svg">
<path d="M15.6953 1.72656C20.7344 5.16406 21.2031 12.0781 17.1016 16.1406C15.2656 17.9766 12.8828 18.875 10.5 18.875C8.07812 18.9141 5.69531 17.9766 3.85938 16.1406C0.539062 12.8594 0.226562 7.70312 2.88281 4.03125C3.35156 3.36719 4.25 3.28906 4.83594 3.875C5.26562 4.30469 5.26562 4.96875 4.91406 5.47656C2.96094 8.17188 3.19531 11.9609 5.61719 14.3828C8.625 17.3906 13.7812 17.0391 16.2422 13.25C17.7266 11.0625 17.7656 8.21094 16.3594 5.94531C15.3047 4.22656 13.625 3.09375 11.75 2.78125V3.91406C11.75 4.65625 11.0469 5.24219 10.2656 5.125C9.64062 5.04688 9.21094 4.46094 9.21094 3.83594V1.0625C9.21094 0.554688 9.64062 0.125 10.1484 0.164062C12.1016 0.164062 14.0938 0.632812 15.6953 1.72656ZM9.83594 10.1641L6.71094 7.03906C6.32031 6.6875 6.32031 6.10156 6.71094 5.75C7.0625 5.35938 7.64844 5.35938 8 5.75L11.125 8.875C11.5156 9.22656 11.5156 9.8125 11.125 10.1641C10.9688 10.3594 10.7344 10.4375 10.5 10.4375C10.2266 10.4375 9.99219 10.3594 9.83594 10.1641Z" fill="#81D4FA"/>
</svg>
