<svg width="22" height="19" viewBox="0 0 22 19" fill="none" xmlns="http://www.w3.org/2000/svg">
<path d="M16.1953 1.72656C21.2344 5.16406 21.7031 12.0781 17.6016 16.1406C15.7656 17.9766 13.3828 18.875 11 18.875C8.57812 18.9141 6.19531 17.9766 4.35938 16.1406C1.03906 12.8594 0.726562 7.70312 3.38281 4.03125C3.85156 3.36719 4.75 3.28906 5.33594 3.875C5.76562 4.30469 5.76562 4.96875 5.41406 5.47656C3.46094 8.17188 3.69531 11.9609 6.11719 14.3828C9.125 17.3906 14.2812 17.0391 16.7422 13.25C18.2266 11.0625 18.2656 8.21094 16.8594 5.94531C15.8047 4.22656 14.125 3.09375 12.25 2.78125V3.91406C12.25 4.65625 11.5469 5.24219 10.7656 5.125C10.1406 5.04688 9.71094 4.46094 9.71094 3.83594V1.0625C9.71094 0.554688 10.1406 0.125 10.6484 0.164062C12.6016 0.164062 14.5938 0.632812 16.1953 1.72656ZM10.3359 10.1641L7.21094 7.03906C6.82031 6.6875 6.82031 6.10156 7.21094 5.75C7.5625 5.35938 8.14844 5.35938 8.5 5.75L11.625 8.875C12.0156 9.22656 12.0156 9.8125 11.625 10.1641C11.4688 10.3594 11.2344 10.4375 11 10.4375C10.7266 10.4375 10.4922 10.3594 10.3359 10.1641Z" fill="#269137"/>
</svg>
