<svg width="51" height="50" viewBox="0 0 51 50" fill="none" xmlns="http://www.w3.org/2000/svg">
<rect x="0.5" width="50" height="50" rx="12" fill="#D6F2FF"/>
<path d="M30 21.25C30 25.8438 25.5938 29.5 20.25 29.5C19.3594 29.5 18.5156 29.4062 17.6719 29.2188C16.2656 30.1094 14.2031 31 11.625 31C11.1562 31 10.7344 30.7656 10.5938 30.2969C10.4062 29.875 10.4531 29.4062 10.7812 29.0312C10.8281 29.0312 11.8594 27.9062 12.6094 26.4062C11.2969 25 10.5 23.2188 10.5 21.25C10.5 16.7031 14.8594 13 20.25 13C25.5938 13 30 16.7031 30 21.25ZM20.25 27.25C24.375 27.25 27.75 24.5781 27.75 21.25C27.75 17.9688 24.375 15.25 20.25 15.25C16.0781 15.25 12.75 17.9688 12.75 21.25C12.75 22.9375 13.5469 24.1562 14.25 24.8594L15.375 26.0312L14.625 27.4844C14.4375 27.7656 14.25 28.0938 14.0625 28.4219C14.9062 28.1875 15.7031 27.8125 16.5 27.2969L17.2969 26.8281L18.1875 27.0156C18.8906 27.2031 19.5469 27.25 20.25 27.25ZM38.5781 33.8125C39.3281 35.3125 40.3594 36.3906 40.3594 36.4375C40.5 36.5312 40.5 36.6719 40.4531 36.8125C40.4062 36.9531 40.2656 37 40.125 37C38.4375 37 36.9844 36.5781 35.8125 36.0156C34.5469 36.625 33.0469 37 31.5 37C27.2344 37 23.7188 34.375 22.7344 30.7656C27.75 29.7812 31.5 25.8906 31.5 21.25C31.5 21.0156 31.4531 20.7812 31.4531 20.5469C31.4531 20.5469 31.4531 20.5 31.5 20.5C36.4688 20.5 40.5 24.2031 40.5 28.75C40.5 30.6719 39.75 32.4062 38.5781 33.8125Z" fill="#81D4FA"/>
</svg>
