<svg width="22" height="25" viewBox="0 0 22 25" fill="none" xmlns="http://www.w3.org/2000/svg">
<path d="M13.1527 14.75C17.6996 14.75 21.4027 18.4531 21.4027 23C21.4027 23.8438 20.6996 24.5 19.9027 24.5H1.90271C1.05896 24.5 0.40271 23.8438 0.40271 23C0.40271 18.4531 4.05896 14.75 8.65271 14.75H13.1527ZM2.65271 22.25H19.1058C18.7308 19.2969 16.1996 17 13.1527 17H8.65271C5.55896 17 3.02771 19.2969 2.65271 22.25ZM10.9027 12.5C7.57458 12.5 4.90271 9.82812 4.90271 6.5C4.90271 3.21875 7.57458 0.5 10.9027 0.5C14.184 0.5 16.9027 3.21875 16.9027 6.5C16.9027 9.82812 14.184 12.5 10.9027 12.5ZM10.9027 2.75C8.79333 2.75 7.15271 4.4375 7.15271 6.5C7.15271 8.60938 8.79333 10.25 10.9027 10.25C12.9652 10.25 14.6527 8.60938 14.6527 6.5C14.6527 4.4375 12.9652 2.75 10.9027 2.75Z" fill="#269137"/>
</svg>
