<svg width="31" height="24" viewBox="0 0 31 24" fill="none" xmlns="http://www.w3.org/2000/svg">
<path d="M15.4531 15C12.7812 15 10.5781 12.8438 10.5781 10.125C10.5781 7.45312 12.7812 5.25 15.4531 5.25C18.1719 5.25 20.3281 7.45312 20.3281 10.125C20.3281 12.8438 18.1719 15 15.4531 15ZM15.4531 7.5C14.0469 7.5 12.8281 8.71875 12.8281 10.125C12.8281 11.5781 14.0469 12.75 15.4531 12.75C16.9062 12.75 18.0781 11.5781 18.0781 10.125C18.0781 8.71875 16.9062 7.5 15.4531 7.5ZM24.5 7.5C22.3906 7.5 20.75 5.85938 20.75 3.75C20.75 1.6875 22.3906 0 24.5 0C26.5625 0 28.25 1.6875 28.25 3.75C28.25 5.85938 26.5625 7.5 24.5 7.5ZM17.7969 16.5C21.5 16.5 24.5 19.3125 24.5 22.7812C24.5 23.4844 23.8906 24 23.1406 24H7.8125C7.0625 24 6.5 23.4844 6.5 22.7812C6.5 19.3125 9.45312 16.5 13.1562 16.5H17.7969ZM8.84375 21.75H22.1094C21.5938 20.0625 19.8594 18.75 17.7969 18.75H13.1562C11.0938 18.75 9.35938 20.0625 8.84375 21.75ZM26.3281 9C28.625 9 30.5 10.9688 30.5 13.4062C30.5 13.875 30.125 14.25 29.6562 14.25H20.2812C21.2656 13.1719 21.8281 11.7188 21.8281 10.125C21.8281 9.89062 21.7812 9.65625 21.7812 9.42188C22.2969 9.1875 22.8594 9 23.4688 9H26.3281ZM9.07812 10.125C9.07812 11.7188 9.6875 13.1719 10.6719 14.25H1.29688C0.828125 14.25 0.5 13.875 0.5 13.4062C0.5 10.9688 2.32812 9 4.625 9H7.48438C8.09375 9 8.65625 9.14062 9.17188 9.42188C9.125 9.65625 9.07812 9.89062 9.07812 10.125ZM6.5 7.5C4.39062 7.5 2.75 5.85938 2.75 3.75C2.75 1.6875 4.39062 0 6.5 0C8.5625 0 10.25 1.6875 10.25 3.75C10.25 5.85938 8.5625 7.5 6.5 7.5Z" fill="white"/>
</svg>
