<svg width="25" height="21" viewBox="0 0 25 21" fill="none" xmlns="http://www.w3.org/2000/svg">
<path d="M12.4609 13C10.2344 13 8.39844 11.2031 8.39844 8.9375C8.39844 6.71094 10.2344 4.875 12.4609 4.875C14.7266 4.875 16.5234 6.71094 16.5234 8.9375C16.5234 11.2031 14.7266 13 12.4609 13ZM14.4141 14.25C17.5 14.25 20 16.5938 20 19.4844C20 20.0703 19.4922 20.5 18.8672 20.5H6.09375C5.46875 20.5 5 20.0703 5 19.4844C5 16.5938 7.46094 14.25 10.5469 14.25H14.4141ZM20 6.75C18.2422 6.75 16.875 5.38281 16.875 3.625C16.875 1.90625 18.2422 0.5 20 0.5C21.7188 0.5 23.125 1.90625 23.125 3.625C23.125 5.38281 21.7188 6.75 20 6.75ZM7.14844 8.9375C7.14844 10.2656 7.65625 11.4766 8.47656 12.375H0.664062C0.273438 12.375 0 12.0625 0 11.6719C0 9.64062 1.52344 8 3.4375 8H5.82031C6.32812 8 6.79688 8.11719 7.22656 8.35156C7.1875 8.54688 7.14844 8.74219 7.14844 8.9375ZM5 6.75C3.24219 6.75 1.875 5.38281 1.875 3.625C1.875 1.90625 3.24219 0.5 5 0.5C6.71875 0.5 8.125 1.90625 8.125 3.625C8.125 5.38281 6.71875 6.75 5 6.75ZM21.5234 8C23.4375 8 25 9.64062 25 11.6719C25 12.0625 24.6875 12.375 24.2969 12.375H16.4844C17.3047 11.4766 17.7734 10.2656 17.7734 8.9375C17.7734 8.74219 17.7344 8.54688 17.7344 8.35156C18.1641 8.15625 18.6328 8 19.1406 8H21.5234Z" fill="#269137"/>
</svg>
