<svg width="26" height="21" viewBox="0 0 26 21" fill="none" xmlns="http://www.w3.org/2000/svg">
<path d="M13.1274 13C10.9009 13 9.06494 11.2031 9.06494 8.9375C9.06494 6.71094 10.9009 4.875 13.1274 4.875C15.3931 4.875 17.1899 6.71094 17.1899 8.9375C17.1899 11.2031 15.3931 13 13.1274 13ZM15.0806 14.25C18.1665 14.25 20.6665 16.5938 20.6665 19.4844C20.6665 20.0703 20.1587 20.5 19.5337 20.5H6.76025C6.13525 20.5 5.6665 20.0703 5.6665 19.4844C5.6665 16.5938 8.12744 14.25 11.2134 14.25H15.0806ZM20.6665 6.75C18.9087 6.75 17.5415 5.38281 17.5415 3.625C17.5415 1.90625 18.9087 0.5 20.6665 0.5C22.3853 0.5 23.7915 1.90625 23.7915 3.625C23.7915 5.38281 22.3853 6.75 20.6665 6.75ZM7.81494 8.9375C7.81494 10.2656 8.32275 11.4766 9.14307 12.375H1.33057C0.939941 12.375 0.666504 12.0625 0.666504 11.6719C0.666504 9.64062 2.18994 8 4.104 8H6.48682C6.99463 8 7.46338 8.11719 7.89307 8.35156C7.854 8.54688 7.81494 8.74219 7.81494 8.9375ZM5.6665 6.75C3.90869 6.75 2.5415 5.38281 2.5415 3.625C2.5415 1.90625 3.90869 0.5 5.6665 0.5C7.38525 0.5 8.7915 1.90625 8.7915 3.625C8.7915 5.38281 7.38525 6.75 5.6665 6.75ZM22.1899 8C24.104 8 25.6665 9.64062 25.6665 11.6719C25.6665 12.0625 25.354 12.375 24.9634 12.375H17.1509C17.9712 11.4766 18.4399 10.2656 18.4399 8.9375C18.4399 8.74219 18.4009 8.54688 18.4009 8.35156C18.8306 8.15625 19.2993 8 19.8071 8H22.1899Z" fill="#269137"/>
</svg>
